  0
SECTION
  2
HEADER
  9
$ACADVER
  1
AC1009
  9
$INSUNITS
 70
     1
 9
$MEASUREMENT
 70
    0
  0
ENDSEC
  0
SECTION
  2
TABLES
  0
TABLE
  2
LAYER
 70
     8
  0
LAYER
  2
0
 62
     7
 70
0
  6
CONTINUOUS
  0
LAYER
  2
1
 62
     1
 70
0
  6
CONTINUOUS
  0
LAYER
  2
2
 62
     2
 70
0
  6
CONTINUOUS
  0
LAYER
  2
3
 62
     3
 70
0
  6
CONTINUOUS
  0
LAYER
  2
4
 62
     4
 70
0
  6
CONTINUOUS
  0
LAYER
  2
5
 62
     5
 70
0
  6
CONTINUOUS
  0
LAYER
  2
6
 62
     6
 70
0
  6
CONTINUOUS
  0
LAYER
  2
7
 62
     7
 70
0
  6
CONTINUOUS
  0
ENDTAB
  0
TABLE
  2
STYLE
 70
     1
  0
STYLE
 70
     0
  2
STANDARD
  3
TXT
 40
0.00
 41
1.00
 42
1.00
 50
0.00
 71
     0
  0
ENDTAB
  0
ENDSEC
  0
SECTION
  2
BLOCKS
  0
BLOCK
  8
0
  2
EPAD
 70
0
 10
0.0
 20
0.0
  0
POLYLINE
  8
0
 66
1
 70
1
 40
0.5
 41
0.5
  0
VERTEX
  8
0
 10
-0.25
 20
0.0
 42
1.0
  0
VERTEX
  8
0
 10
0.25
 20
0.0
 42
1.0
  0
SEQEND
  8
0
  0
ENDBLK
  8
0
  0
BLOCK
  8
0
  2
RPAD
 70
0
 10
0.0
 20
0.0
  0
TRACE
  8
0
 10
-0.5
 20
-0.5
 11
-0.5
 21
0.5
 12
0.5
 22
-0.5
 13
0.5
 23
0.5
  0
ENDBLK
  8
0
  0
ENDSEC
0
SECTION
2
ENTITIES
0
POLYLINE
8
1
66
1
40
0.016000
41
0.016000
0
VERTEX
8
1
10
-6.300000
20
1.600000
0
VERTEX
8
1
10
-6.300000
20
1.700000
0
VERTEX
8
1
10
-6.100000
20
1.700000
0
SEQEND
8
1
0
POLYLINE
8
1
66
1
40
0.016000
41
0.016000
0
VERTEX
8
1
10
-6.300000
20
1.600000
0
VERTEX
8
1
10
-6.100000
20
1.600000
0
SEQEND
8
1
0
POLYLINE
8
1
66
1
40
0.016000
41
0.016000
0
VERTEX
8
1
10
-6.300000
20
1.500000
0
VERTEX
8
1
10
-6.300000
20
1.600000
0
SEQEND
8
1
0
POLYLINE
8
1
66
1
40
0.016000
41
0.016000
0
VERTEX
8
1
10
-6.300000
20
1.500000
0
VERTEX
8
1
10
-6.100000
20
1.500000
0
SEQEND
8
1
0
POLYLINE
8
1
66
1
40
0.016000
41
0.016000
0
VERTEX
8
1
10
-6.300000
20
1.400000
0
VERTEX
8
1
10
-6.300000
20
1.500000
0
SEQEND
8
1
0
POLYLINE
8
1
66
1
40
0.016000
41
0.016000
0
VERTEX
8
1
10
-6.300000
20
1.400000
0
VERTEX
8
1
10
-6.300000
20
0.300000
0
SEQEND
8
1
0
POLYLINE
8
1
66
1
40
0.016000
41
0.016000
0
VERTEX
8
1
10
-6.300000
20
1.400000
0
VERTEX
8
1
10
-6.100000
20
1.400000
0
SEQEND
8
1
0
POLYLINE
8
1
66
1
40
0.016000
41
0.016000
0
VERTEX
8
1
10
-7.300000
20
1.000000
0
VERTEX
8
1
10
-7.300000
20
1.200000
0
VERTEX
8
1
10
-6.100000
20
1.200000
0
SEQEND
8
1
0
POLYLINE
8
1
66
1
40
0.016000
41
0.016000
0
VERTEX
8
1
10
-7.300000
20
1.000000
0
VERTEX
8
1
10
-7.400000
20
1.000000
0
VERTEX
8
1
10
-7.400000
20
1.100000
0
SEQEND
8
1
0
POLYLINE
8
1
66
1
40
0.016000
41
0.016000
0
VERTEX
8
1
10
-7.300000
20
1.000000
0
VERTEX
8
1
10
-7.200000
20
1.000000
0
VERTEX
8
1
10
-7.200000
20
1.100000
0
VERTEX
8
1
10
-6.100000
20
1.100000
0
SEQEND
8
1
0
POLYLINE
8
1
66
1
40
0.016000
41
0.016000
0
VERTEX
8
1
10
-7.300000
20
1.000000
0
VERTEX
8
1
10
-7.300000
20
0.900000
0
VERTEX
8
1
10
-6.100000
20
0.900000
0
SEQEND
8
1
0
POLYLINE
8
1
66
1
40
0.016000
41
0.016000
0
VERTEX
8
1
10
-4.200000
20
1.100000
0
VERTEX
8
1
10
-3.500000
20
1.100000
0
SEQEND
8
1
0
POLYLINE
8
1
66
1
40
0.016000
41
0.016000
0
VERTEX
8
1
10
-4.200000
20
1.100000
0
VERTEX
8
1
10
-4.200000
20
1.200000
0
SEQEND
8
1
0
POLYLINE
8
1
66
1
40
0.016000
41
0.016000
0
VERTEX
8
1
10
-4.200000
20
1.000000
0
VERTEX
8
1
10
-3.500000
20
1.000000
0
SEQEND
8
1
0
POLYLINE
8
1
66
1
40
0.016000
41
0.016000
0
VERTEX
8
1
10
-4.200000
20
1.000000
0
VERTEX
8
1
10
-4.200000
20
1.100000
0
SEQEND
8
1
0
POLYLINE
8
1
66
1
40
0.016000
41
0.016000
0
VERTEX
8
1
10
-4.200000
20
1.000000
0
VERTEX
8
1
10
-4.200000
20
0.700000
0
VERTEX
8
1
10
-3.500000
20
0.700000
0
SEQEND
8
1
0
POLYLINE
8
1
66
1
40
0.016000
41
0.016000
0
VERTEX
8
1
10
-3.900000
20
1.500000
0
VERTEX
8
1
10
-3.900000
20
1.600000
0
VERTEX
8
1
10
-3.500000
20
1.600000
0
SEQEND
8
1
0
POLYLINE
8
1
66
1
40
0.016000
41
0.016000
0
VERTEX
8
1
10
-3.900000
20
1.500000
0
VERTEX
8
1
10
-3.500000
20
1.500000
0
SEQEND
8
1
0
POLYLINE
8
1
66
1
40
0.016000
41
0.016000
0
VERTEX
8
1
10
-3.900000
20
1.400000
0
VERTEX
8
1
10
-3.900000
20
1.500000
0
SEQEND
8
1
0
POLYLINE
8
1
66
1
40
0.016000
41
0.016000
0
VERTEX
8
1
10
-3.900000
20
1.400000
0
VERTEX
8
1
10
-3.500000
20
1.400000
0
SEQEND
8
1
0
POLYLINE
8
1
66
1
40
0.016000
41
0.016000
0
VERTEX
8
1
10
-3.900000
20
1.300000
0
VERTEX
8
1
10
-3.900000
20
1.400000
0
SEQEND
8
1
0
POLYLINE
8
1
66
1
40
0.016000
41
0.016000
0
VERTEX
8
1
10
-3.900000
20
1.300000
0
VERTEX
8
1
10
-3.900000
20
0.500000
0
SEQEND
8
1
0
POLYLINE
8
1
66
1
40
0.016000
41
0.016000
0
VERTEX
8
1
10
-3.900000
20
1.300000
0
VERTEX
8
1
10
-3.500000
20
1.300000
0
SEQEND
8
1
0
POLYLINE
8
1
66
1
40
0.016000
41
0.016000
0
VERTEX
8
1
10
-3.700000
20
0.800000
0
VERTEX
8
1
10
-3.700000
20
2.300000
0
SEQEND
8
1
0
POLYLINE
8
1
66
1
40
0.016000
41
0.016000
0
VERTEX
8
1
10
-3.700000
20
0.800000
0
VERTEX
8
1
10
-3.700000
20
0.000000
0
VERTEX
8
1
10
-6.500000
20
0.000000
0
VERTEX
8
1
10
-6.500000
20
1.000000
0
VERTEX
8
1
10
-6.100000
20
1.000000
0
SEQEND
8
1
0
POLYLINE
8
1
66
1
40
0.016000
41
0.016000
0
VERTEX
8
1
10
-3.700000
20
0.800000
0
VERTEX
8
1
10
-3.500000
20
0.800000
0
SEQEND
8
1
0
POLYLINE
8
1
66
1
40
0.016000
41
0.016000
0
VERTEX
8
1
10
-5.000000
20
1.600000
0
VERTEX
8
1
10
-5.100000
20
1.600000
0
SEQEND
8
1
0
POLYLINE
8
1
66
1
40
0.016000
41
0.016000
0
VERTEX
8
1
10
-5.000000
20
1.600000
0
VERTEX
8
1
10
-5.000000
20
2.300000
0
VERTEX
8
1
10
-5.800000
20
2.300000
0
SEQEND
8
1
0
POLYLINE
8
1
66
1
40
0.016000
41
0.016000
0
VERTEX
8
1
10
-4.800000
20
1.500000
0
VERTEX
8
1
10
-5.100000
20
1.500000
0
SEQEND
8
1
0
POLYLINE
8
1
66
1
40
0.016000
41
0.016000
0
VERTEX
8
1
10
-4.800000
20
1.500000
0
VERTEX
8
1
10
-4.800000
20
2.100000
0
VERTEX
8
1
10
-5.800000
20
2.100000
0
SEQEND
8
1
0
POLYLINE
8
1
66
1
40
0.016000
41
0.016000
0
VERTEX
8
1
10
-2.500000
20
1.600000
0
VERTEX
8
1
10
-2.500000
20
1.700000
0
VERTEX
8
1
10
-2.300000
20
1.700000
0
VERTEX
8
1
10
-2.300000
20
2.400000
0
VERTEX
8
1
10
-2.700000
20
2.400000
0
SEQEND
8
1
0
POLYLINE
8
1
66
1
40
0.016000
41
0.016000
0
VERTEX
8
1
10
-2.500000
20
1.600000
0
VERTEX
8
1
10
-2.500000
20
1.600000
0
SEQEND
8
1
0
POLYLINE
8
1
66
1
40
0.016000
41
0.016000
0
VERTEX
8
1
10
-2.400000
20
1.300000
0
VERTEX
8
1
10
-2.500000
20
1.300000
0
SEQEND
8
1
0
POLYLINE
8
1
66
1
40
0.016000
41
0.016000
0
VERTEX
8
1
10
-2.400000
20
1.300000
0
VERTEX
8
1
10
-2.400000
20
2.200000
0
VERTEX
8
1
10
-2.700000
20
2.200000
0
SEQEND
8
1
0
POLYLINE
8
1
66
1
40
0.016000
41
0.016000
0
VERTEX
8
1
10
-2.300000
20
-2.400000
0
VERTEX
8
1
10
-2.000000
20
-2.400000
0
SEQEND
8
1
0
POLYLINE
8
1
66
1
40
0.016000
41
0.016000
0
VERTEX
8
1
10
-2.300000
20
-2.400000
0
VERTEX
8
1
10
-2.300000
20
-2.900000
0
VERTEX
8
1
10
-5.100000
20
-2.900000
0
VERTEX
8
1
10
-5.100000
20
-2.400000
0
VERTEX
8
1
10
-4.900000
20
-2.400000
0
SEQEND
8
1
0
POLYLINE
8
1
66
1
40
0.016000
41
0.016000
0
VERTEX
8
1
10
-2.300000
20
-2.400000
0
VERTEX
8
1
10
-2.300000
20
-1.000000
0
VERTEX
8
1
10
-2.200000
20
-1.000000
0
SEQEND
8
1
0
POLYLINE
8
1
66
1
40
0.016000
41
0.016000
0
VERTEX
8
1
10
-3.500000
20
-2.400000
0
VERTEX
8
1
10
-3.500000
20
-1.600000
0
SEQEND
8
1
0
POLYLINE
8
1
66
1
40
0.016000
41
0.016000
0
VERTEX
8
1
10
-3.500000
20
-2.400000
0
VERTEX
8
1
10
-3.500000
20
-2.500000
0
VERTEX
8
1
10
-2.000000
20
-2.500000
0
SEQEND
8
1
0
POLYLINE
8
1
66
1
40
0.016000
41
0.016000
0
VERTEX
8
1
10
-3.500000
20
-2.400000
0
VERTEX
8
1
10
-3.600000
20
-2.400000
0
VERTEX
8
1
10
-3.600000
20
-2.700000
0
VERTEX
8
1
10
-5.000000
20
-2.700000
0
VERTEX
8
1
10
-5.000000
20
-2.600000
0
VERTEX
8
1
10
-4.900000
20
-2.600000
0
SEQEND
8
1
0
POLYLINE
8
1
66
1
40
0.016000
41
0.016000
0
VERTEX
8
1
10
-2.100000
20
-1.700000
0
VERTEX
8
1
10
-2.100000
20
-1.600000
0
VERTEX
8
1
10
-2.000000
20
-1.600000
0
SEQEND
8
1
0
POLYLINE
8
1
66
1
40
0.016000
41
0.016000
0
VERTEX
8
1
10
-2.100000
20
-1.700000
0
VERTEX
8
1
10
-2.000000
20
-1.700000
0
SEQEND
8
1
0
POLYLINE
8
1
66
1
40
0.016000
41
0.016000
0
VERTEX
8
1
10
-2.100000
20
-1.800000
0
VERTEX
8
1
10
-2.100000
20
-1.700000
0
SEQEND
8
1
0
POLYLINE
8
1
66
1
40
0.016000
41
0.016000
0
VERTEX
8
1
10
-2.100000
20
-1.800000
0
VERTEX
8
1
10
-2.000000
20
-1.800000
0
SEQEND
8
1
0
POLYLINE
8
1
66
1
40
0.016000
41
0.016000
0
VERTEX
8
1
10
-2.100000
20
-1.900000
0
VERTEX
8
1
10
-2.100000
20
-1.800000
0
SEQEND
8
1
0
POLYLINE
8
1
66
1
40
0.016000
41
0.016000
0
VERTEX
8
1
10
-2.100000
20
-1.900000
0
VERTEX
8
1
10
-2.100000
20
-2.600000
0
SEQEND
8
1
0
POLYLINE
8
1
66
1
40
0.016000
41
0.016000
0
VERTEX
8
1
10
-2.100000
20
-1.900000
0
VERTEX
8
1
10
-2.000000
20
-1.900000
0
SEQEND
8
1
0
POLYLINE
8
1
66
1
40
0.016000
41
0.016000
0
VERTEX
8
1
10
-2.200000
20
-2.100000
0
VERTEX
8
1
10
-2.000000
20
-2.100000
0
SEQEND
8
1
0
POLYLINE
8
1
66
1
40
0.016000
41
0.016000
0
VERTEX
8
1
10
-2.200000
20
-2.100000
0
VERTEX
8
1
10
-2.200000
20
-1.500000
0
SEQEND
8
1
0
POLYLINE
8
1
66
1
40
0.016000
41
0.016000
0
VERTEX
8
1
10
-2.200000
20
-2.100000
0
VERTEX
8
1
10
-2.200000
20
-2.200000
0
VERTEX
8
1
10
-2.000000
20
-2.200000
0
SEQEND
8
1
0
POLYLINE
8
1
66
1
40
0.016000
41
0.016000
0
VERTEX
8
1
10
-4.100000
20
-0.500000
0
VERTEX
8
1
10
-4.100000
20
0.900000
0
VERTEX
8
1
10
-3.500000
20
0.900000
0
SEQEND
8
1
0
POLYLINE
8
1
66
1
40
0.016000
41
0.016000
0
VERTEX
8
1
10
-4.100000
20
-0.500000
0
VERTEX
8
1
10
-5.600000
20
-0.500000
0
SEQEND
8
1
0
POLYLINE
8
1
66
1
40
0.016000
41
0.016000
0
VERTEX
8
1
10
-5.100000
20
-2.200000
0
VERTEX
8
1
10
-4.900000
20
-2.200000
0
SEQEND
8
1
0
POLYLINE
8
1
66
1
40
0.016000
41
0.016000
0
VERTEX
8
1
10
-5.100000
20
-2.200000
0
VERTEX
8
1
10
-5.100000
20
-1.500000
0
SEQEND
8
1
0
POLYLINE
8
1
66
1
40
0.016000
41
0.016000
0
VERTEX
8
1
10
-5.100000
20
-2.200000
0
VERTEX
8
1
10
-5.100000
20
-2.300000
0
VERTEX
8
1
10
-4.900000
20
-2.300000
0
SEQEND
8
1
0
POLYLINE
8
1
66
1
40
0.016000
41
0.016000
0
VERTEX
8
1
10
-5.100000
20
-2.200000
0
VERTEX
8
1
10
-5.200000
20
-2.200000
0
VERTEX
8
1
10
-5.200000
20
-2.500000
0
VERTEX
8
1
10
-4.900000
20
-2.500000
0
SEQEND
8
1
0
POLYLINE
8
1
66
1
40
0.016000
41
0.016000
0
VERTEX
8
1
10
-5.300000
20
-1.800000
0
VERTEX
8
1
10
-5.300000
20
-1.700000
0
VERTEX
8
1
10
-4.900000
20
-1.700000
0
SEQEND
8
1
0
POLYLINE
8
1
66
1
40
0.016000
41
0.016000
0
VERTEX
8
1
10
-5.300000
20
-1.800000
0
VERTEX
8
1
10
-4.900000
20
-1.800000
0
SEQEND
8
1
0
POLYLINE
8
1
66
1
40
0.016000
41
0.016000
0
VERTEX
8
1
10
-5.300000
20
-1.900000
0
VERTEX
8
1
10
-5.300000
20
-1.800000
0
SEQEND
8
1
0
POLYLINE
8
1
66
1
40
0.016000
41
0.016000
0
VERTEX
8
1
10
-5.300000
20
-1.900000
0
VERTEX
8
1
10
-4.900000
20
-1.900000
0
SEQEND
8
1
0
POLYLINE
8
1
66
1
40
0.016000
41
0.016000
0
VERTEX
8
1
10
-5.300000
20
-2.000000
0
VERTEX
8
1
10
-5.300000
20
-1.900000
0
SEQEND
8
1
0
POLYLINE
8
1
66
1
40
0.016000
41
0.016000
0
VERTEX
8
1
10
-5.300000
20
-2.000000
0
VERTEX
8
1
10
-5.300000
20
-2.700000
0
SEQEND
8
1
0
POLYLINE
8
1
66
1
40
0.016000
41
0.016000
0
VERTEX
8
1
10
-5.300000
20
-2.000000
0
VERTEX
8
1
10
-4.900000
20
-2.000000
0
SEQEND
8
1
0
POLYLINE
8
1
66
1
40
0.016000
41
0.016000
0
VERTEX
8
1
10
-0.100000
20
-1.700000
0
VERTEX
8
1
10
-1.000000
20
-1.700000
0
SEQEND
8
1
0
TEXT
8
0
10
-0.200000
20
-1.682000
40
0.080000
41
1.000000
1
Shour1
0
POLYLINE
8
1
66
1
40
0.016000
41
0.016000
0
VERTEX
8
1
10
-0.900000
20
-1.600000
0
VERTEX
8
1
10
-1.000000
20
-1.600000
0
SEQEND
8
1
0
POLYLINE
8
1
66
1
40
0.016000
41
0.016000
0
VERTEX
8
1
10
-0.900000
20
-1.600000
0
VERTEX
8
1
10
-0.100000
20
-1.600000
0
SEQEND
8
1
0
TEXT
8
0
10
-0.200000
20
-1.582000
40
0.080000
41
1.000000
1
Shour0
0
POLYLINE
8
1
66
1
40
0.016000
41
0.016000
0
VERTEX
8
1
10
-0.900000
20
-1.600000
0
VERTEX
8
1
10
-0.900000
20
-1.100000
0
VERTEX
8
1
10
-1.200000
20
-1.100000
0
SEQEND
8
1
0
POLYLINE
8
1
66
1
40
0.016000
41
0.016000
0
VERTEX
8
1
10
-0.800000
20
-1.900000
0
VERTEX
8
1
10
-1.000000
20
-1.900000
0
SEQEND
8
1
0
POLYLINE
8
1
66
1
40
0.016000
41
0.016000
0
VERTEX
8
1
10
-0.800000
20
-1.900000
0
VERTEX
8
1
10
-0.100000
20
-1.900000
0
SEQEND
8
1
0
TEXT
8
0
10
-0.200000
20
-1.882000
40
0.080000
41
1.000000
1
Shour3
0
POLYLINE
8
1
66
1
40
0.016000
41
0.016000
0
VERTEX
8
1
10
-0.800000
20
-1.900000
0
VERTEX
8
1
10
-0.800000
20
-0.900000
0
VERTEX
8
1
10
-1.200000
20
-0.900000
0
SEQEND
8
1
0
POLYLINE
8
1
66
1
40
0.016000
41
0.016000
0
VERTEX
8
1
10
-0.700000
20
-1.800000
0
VERTEX
8
1
10
-1.000000
20
-1.800000
0
SEQEND
8
1
0
POLYLINE
8
1
66
1
40
0.016000
41
0.016000
0
VERTEX
8
1
10
-0.700000
20
-1.800000
0
VERTEX
8
1
10
-0.100000
20
-1.800000
0
SEQEND
8
1
0
TEXT
8
0
10
-0.300000
20
-1.782000
40
0.080000
41
1.000000
1
Shour2
0
POLYLINE
8
1
66
1
40
0.016000
41
0.016000
0
VERTEX
8
1
10
-0.700000
20
-1.800000
0
VERTEX
8
1
10
-0.700000
20
-0.400000
0
VERTEX
8
1
10
-3.400000
20
-0.400000
0
VERTEX
8
1
10
-3.400000
20
-0.600000
0
SEQEND
8
1
0
POLYLINE
8
1
66
1
40
0.016000
41
0.016000
0
VERTEX
8
1
10
-3.600000
20
-1.700000
0
VERTEX
8
1
10
-3.900000
20
-1.700000
0
SEQEND
8
1
0
TEXT
8
0
10
-3.700000
20
-1.682000
40
0.080000
41
1.000000
1
Fhour0
0
POLYLINE
8
1
66
1
40
0.016000
41
0.016000
0
VERTEX
8
1
10
-3.800000
20
-1.800000
0
VERTEX
8
1
10
-3.900000
20
-1.800000
0
SEQEND
8
1
0
POLYLINE
8
1
66
1
40
0.016000
41
0.016000
0
VERTEX
8
1
10
-3.800000
20
-1.800000
0
VERTEX
8
1
10
-3.600000
20
-1.800000
0
SEQEND
8
1
0
TEXT
8
0
10
-3.700000
20
-1.782000
40
0.080000
41
1.000000
1
Fhour1
0
POLYLINE
8
1
66
1
40
0.016000
41
0.016000
0
VERTEX
8
1
10
-3.800000
20
-1.800000
0
VERTEX
8
1
10
-3.800000
20
-0.600000
0
VERTEX
8
1
10
-3.600000
20
-0.600000
0
SEQEND
8
1
0
POLYLINE
8
1
66
1
40
0.016000
41
0.016000
0
VERTEX
8
1
10
-3.600000
20
-1.900000
0
VERTEX
8
1
10
-3.900000
20
-1.900000
0
SEQEND
8
1
0
TEXT
8
0
10
-3.700000
20
-1.882000
40
0.080000
41
1.000000
1
Fhour2
0
POLYLINE
8
1
66
1
40
0.016000
41
0.016000
0
VERTEX
8
1
10
-3.600000
20
-2.000000
0
VERTEX
8
1
10
-3.900000
20
-2.000000
0
SEQEND
8
1
0
TEXT
8
0
10
-3.700000
20
-1.982000
40
0.080000
41
1.000000
1
Fhour3
0
POLYLINE
8
1
66
1
40
0.016000
41
0.016000
0
VERTEX
8
1
10
-6.800000
20
0.800000
0
VERTEX
8
1
10
-6.100000
20
0.800000
0
SEQEND
8
1
0
POLYLINE
8
1
66
1
40
0.016000
41
0.016000
0
VERTEX
8
1
10
-6.800000
20
0.800000
0
VERTEX
8
1
10
-6.800000
20
2.200000
0
SEQEND
8
1
0
POLYLINE
8
1
66
1
40
0.016000
41
0.016000
0
VERTEX
8
1
10
-6.800000
20
0.800000
0
VERTEX
8
1
10
-6.800000
20
-1.600000
0
VERTEX
8
1
10
-3.900000
20
-1.600000
0
VERTEX
8
1
10
-3.900000
20
-2.100000
0
VERTEX
8
1
10
-3.100000
20
-2.100000
0
VERTEX
8
1
10
-3.100000
20
-2.300000
0
VERTEX
8
1
10
-2.000000
20
-2.300000
0
SEQEND
8
1
0
POLYLINE
8
1
66
1
40
0.016000
41
0.016000
0
VERTEX
8
1
10
-4.900000
20
1.400000
0
VERTEX
8
1
10
-5.100000
20
1.400000
0
SEQEND
8
1
0
TEXT
8
0
10
-5.000000
20
1.418000
40
0.080000
41
1.000000
1
FSecond3
0
POLYLINE
8
1
66
1
40
0.016000
41
0.016000
0
VERTEX
8
1
10
-4.600000
20
1.500000
0
VERTEX
8
1
10
-4.800000
20
1.500000
0
SEQEND
8
1
0
TEXT
8
0
10
-4.700000
20
1.518000
40
0.080000
41
1.000000
1
FSecond2
0
POLYLINE
8
1
66
1
40
0.016000
41
0.016000
0
VERTEX
8
1
10
-4.700000
20
1.600000
0
VERTEX
8
1
10
-5.000000
20
1.600000
0
SEQEND
8
1
0
TEXT
8
0
10
-4.900000
20
1.618000
40
0.080000
41
1.000000
1
FSecond1
0
POLYLINE
8
1
66
1
40
0.016000
41
0.016000
0
VERTEX
8
1
10
-4.700000
20
1.700000
0
VERTEX
8
1
10
-5.100000
20
1.700000
0
SEQEND
8
1
0
TEXT
8
0
10
-4.900000
20
1.718000
40
0.080000
41
1.000000
1
FSecond0
0
POLYLINE
8
1
66
1
40
0.016000
41
0.016000
0
VERTEX
8
1
10
-2.200000
20
1.600000
0
VERTEX
8
1
10
-2.500000
20
1.600000
0
SEQEND
8
1
0
TEXT
8
0
10
-2.300000
20
1.618000
40
0.080000
41
1.000000
1
SSecond0
0
POLYLINE
8
1
66
1
40
0.016000
41
0.016000
0
VERTEX
8
1
10
-2.200000
20
1.500000
0
VERTEX
8
1
10
-2.500000
20
1.500000
0
SEQEND
8
1
0
TEXT
8
0
10
-2.300000
20
1.518000
40
0.080000
41
1.000000
1
SSecon1
0
POLYLINE
8
1
66
1
40
0.016000
41
0.016000
0
VERTEX
8
1
10
-2.200000
20
1.400000
0
VERTEX
8
1
10
-2.500000
20
1.400000
0
SEQEND
8
1
0
TEXT
8
0
10
-2.300000
20
1.418000
40
0.080000
41
1.000000
1
SSecond2
0
POLYLINE
8
1
66
1
40
0.016000
41
0.016000
0
VERTEX
8
1
10
-2.200000
20
1.300000
0
VERTEX
8
1
10
-2.400000
20
1.300000
0
SEQEND
8
1
0
TEXT
8
0
10
-2.300000
20
1.318000
40
0.080000
41
1.000000
1
SSecond3
0
POLYLINE
8
1
66
1
40
0.016000
41
0.016000
0
VERTEX
8
1
10
0.100000
20
2.800000
0
VERTEX
8
1
10
0.500000
20
2.800000
0
SEQEND
8
1
0
TEXT
8
0
10
0.200000
20
2.818000
40
0.080000
41
1.000000
1
Fhour0
0
POLYLINE
8
1
66
1
40
0.016000
41
0.016000
0
VERTEX
8
1
10
4.000000
20
1.500000
0
VERTEX
8
1
10
4.000000
20
1.600000
0
SEQEND
8
1
0
POLYLINE
8
1
66
1
40
0.016000
41
0.016000
0
VERTEX
8
1
10
4.100000
20
1.500000
0
VERTEX
8
1
10
4.100000
20
1.600000
0
SEQEND
8
1
0
POLYLINE
8
1
66
1
40
0.016000
41
0.016000
0
VERTEX
8
1
10
4.200000
20
1.500000
0
VERTEX
8
1
10
4.200000
20
1.600000
0
SEQEND
8
1
0
POLYLINE
8
1
66
1
40
0.016000
41
0.016000
0
VERTEX
8
1
10
4.300000
20
1.500000
0
VERTEX
8
1
10
4.300000
20
1.600000
0
SEQEND
8
1
0
POLYLINE
8
1
66
1
40
0.016000
41
0.016000
0
VERTEX
8
1
10
4.400000
20
1.500000
0
VERTEX
8
1
10
4.400000
20
1.600000
0
SEQEND
8
1
0
POLYLINE
8
1
66
1
40
0.016000
41
0.016000
0
VERTEX
8
1
10
4.500000
20
1.500000
0
VERTEX
8
1
10
4.500000
20
1.600000
0
SEQEND
8
1
0
POLYLINE
8
1
66
1
40
0.016000
41
0.016000
0
VERTEX
8
1
10
4.600000
20
1.500000
0
VERTEX
8
1
10
4.600000
20
1.600000
0
SEQEND
8
1
0
POLYLINE
8
1
66
1
40
0.016000
41
0.016000
0
VERTEX
8
1
10
0.100000
20
2.700000
0
VERTEX
8
1
10
0.500000
20
2.700000
0
SEQEND
8
1
0
TEXT
8
0
10
0.200000
20
2.718000
40
0.080000
41
1.000000
1
Shour0
0
POLYLINE
8
1
66
1
40
0.016000
41
0.016000
0
VERTEX
8
1
10
0.100000
20
2.600000
0
VERTEX
8
1
10
0.500000
20
2.600000
0
SEQEND
8
1
0
TEXT
8
0
10
0.200000
20
2.618000
40
0.080000
41
1.000000
1
FSecond0
0
POLYLINE
8
1
66
1
40
0.016000
41
0.016000
0
VERTEX
8
1
10
0.100000
20
2.500000
0
VERTEX
8
1
10
0.500000
20
2.500000
0
SEQEND
8
1
0
TEXT
8
0
10
0.200000
20
2.518000
40
0.080000
41
1.000000
1
SSecond0
0
POLYLINE
8
1
66
1
40
0.016000
41
0.016000
0
VERTEX
8
1
10
0.100000
20
0.900000
0
VERTEX
8
1
10
0.500000
20
0.900000
0
SEQEND
8
1
0
TEXT
8
0
10
0.200000
20
0.918000
40
0.080000
41
1.000000
1
Fhour1
0
POLYLINE
8
1
66
1
40
0.016000
41
0.016000
0
VERTEX
8
1
10
0.100000
20
0.800000
0
VERTEX
8
1
10
0.500000
20
0.800000
0
SEQEND
8
1
0
TEXT
8
0
10
0.200000
20
0.818000
40
0.080000
41
1.000000
1
Shour1
0
POLYLINE
8
1
66
1
40
0.016000
41
0.016000
0
VERTEX
8
1
10
0.100000
20
0.700000
0
VERTEX
8
1
10
0.500000
20
0.700000
0
SEQEND
8
1
0
TEXT
8
0
10
0.200000
20
0.718000
40
0.080000
41
1.000000
1
FSecond1
0
POLYLINE
8
1
66
1
40
0.016000
41
0.016000
0
VERTEX
8
1
10
0.100000
20
0.600000
0
VERTEX
8
1
10
0.500000
20
0.600000
0
SEQEND
8
1
0
TEXT
8
0
10
0.200000
20
0.618000
40
0.080000
41
1.000000
1
SSecond1
0
POLYLINE
8
1
66
1
40
0.016000
41
0.016000
0
VERTEX
8
1
10
0.300000
20
-0.800000
0
VERTEX
8
1
10
0.600000
20
-0.800000
0
SEQEND
8
1
0
TEXT
8
0
10
0.400000
20
-0.782000
40
0.080000
41
1.000000
1
Fhour2
0
POLYLINE
8
1
66
1
40
0.016000
41
0.016000
0
VERTEX
8
1
10
0.300000
20
-0.900000
0
VERTEX
8
1
10
0.600000
20
-0.900000
0
SEQEND
8
1
0
TEXT
8
0
10
0.400000
20
-0.882000
40
0.080000
41
1.000000
1
Shour2
0
POLYLINE
8
1
66
1
40
0.016000
41
0.016000
0
VERTEX
8
1
10
0.300000
20
-1.000000
0
VERTEX
8
1
10
0.600000
20
-1.000000
0
SEQEND
8
1
0
TEXT
8
0
10
0.400000
20
-0.982000
40
0.080000
41
1.000000
1
FSecond2
0
POLYLINE
8
1
66
1
40
0.016000
41
0.016000
0
VERTEX
8
1
10
0.300000
20
-1.100000
0
VERTEX
8
1
10
0.600000
20
-1.100000
0
SEQEND
8
1
0
TEXT
8
0
10
0.400000
20
-1.082000
40
0.080000
41
1.000000
1
SSecond2
0
POLYLINE
8
1
66
1
40
0.016000
41
0.016000
0
VERTEX
8
1
10
0.200000
20
-2.700000
0
VERTEX
8
1
10
0.500000
20
-2.700000
0
SEQEND
8
1
0
TEXT
8
0
10
0.300000
20
-2.682000
40
0.080000
41
1.000000
1
Fhour3
0
POLYLINE
8
1
66
1
40
0.016000
41
0.016000
0
VERTEX
8
1
10
0.200000
20
-2.800000
0
VERTEX
8
1
10
0.500000
20
-2.800000
0
SEQEND
8
1
0
TEXT
8
0
10
0.300000
20
-2.782000
40
0.080000
41
1.000000
1
Shour3
0
POLYLINE
8
1
66
1
40
0.016000
41
0.016000
0
VERTEX
8
1
10
0.200000
20
-2.900000
0
VERTEX
8
1
10
0.500000
20
-2.900000
0
SEQEND
8
1
0
TEXT
8
0
10
0.300000
20
-2.882000
40
0.080000
41
1.000000
1
FSecond3
0
POLYLINE
8
1
66
1
40
0.016000
41
0.016000
0
VERTEX
8
1
10
0.200000
20
-3.000000
0
VERTEX
8
1
10
0.500000
20
-3.000000
0
SEQEND
8
1
0
TEXT
8
0
10
0.300000
20
-2.982000
40
0.080000
41
1.000000
1
SSecond3
0
POLYLINE
8
1
66
1
40
0.016000
41
0.016000
0
VERTEX
8
1
10
1.700000
20
2.800000
0
VERTEX
8
1
10
1.500000
20
2.800000
0
SEQEND
8
1
0
TEXT
8
0
10
1.600000
20
2.818000
40
0.080000
41
1.000000
1
Y0
0
POLYLINE
8
1
66
1
40
0.016000
41
0.016000
0
VERTEX
8
1
10
1.700000
20
0.900000
0
VERTEX
8
1
10
1.500000
20
0.900000
0
SEQEND
8
1
0
TEXT
8
0
10
1.600000
20
0.918000
40
0.080000
41
1.000000
1
Y1
0
POLYLINE
8
1
66
1
40
0.016000
41
0.016000
0
VERTEX
8
1
10
1.800000
20
-0.800000
0
VERTEX
8
1
10
1.600000
20
-0.800000
0
SEQEND
8
1
0
TEXT
8
0
10
1.700000
20
-0.782000
40
0.080000
41
1.000000
1
Y2
0
POLYLINE
8
1
66
1
40
0.016000
41
0.016000
0
VERTEX
8
1
10
1.700000
20
-2.700000
0
VERTEX
8
1
10
1.500000
20
-2.700000
0
SEQEND
8
1
0
TEXT
8
0
10
1.600000
20
-2.682000
40
0.080000
41
1.000000
1
Y3
0
POLYLINE
8
1
66
1
40
0.016000
41
0.016000
0
VERTEX
8
1
10
0.300000
20
1.900000
0
VERTEX
8
1
10
0.500000
20
1.900000
0
SEQEND
8
1
0
TEXT
8
0
10
0.400000
20
1.918000
40
0.080000
41
1.000000
1
A
0
POLYLINE
8
1
66
1
40
0.016000
41
0.016000
0
VERTEX
8
1
10
0.300000
20
1.800000
0
VERTEX
8
1
10
0.500000
20
1.800000
0
SEQEND
8
1
0
TEXT
8
0
10
0.400000
20
1.818000
40
0.080000
41
1.000000
1
B
0
POLYLINE
8
1
66
1
40
0.016000
41
0.016000
0
VERTEX
8
1
10
0.300000
20
1.700000
0
VERTEX
8
1
10
0.500000
20
1.700000
0
SEQEND
8
1
0
TEXT
8
0
10
0.400000
20
1.718000
40
0.080000
41
1.000000
1
C
0
POLYLINE
8
1
66
1
40
0.016000
41
0.016000
0
VERTEX
8
1
10
0.300000
20
0.000000
0
VERTEX
8
1
10
0.500000
20
0.000000
0
SEQEND
8
1
0
TEXT
8
0
10
0.400000
20
0.018000
40
0.080000
41
1.000000
1
A
0
POLYLINE
8
1
66
1
40
0.016000
41
0.016000
0
VERTEX
8
1
10
0.300000
20
-0.100000
0
VERTEX
8
1
10
0.500000
20
-0.100000
0
SEQEND
8
1
0
TEXT
8
0
10
0.400000
20
-0.082000
40
0.080000
41
1.000000
1
B
0
POLYLINE
8
1
66
1
40
0.016000
41
0.016000
0
VERTEX
8
1
10
0.300000
20
-0.200000
0
VERTEX
8
1
10
0.500000
20
-0.200000
0
SEQEND
8
1
0
TEXT
8
0
10
0.400000
20
-0.182000
40
0.080000
41
1.000000
1
C
0
POLYLINE
8
1
66
1
40
0.016000
41
0.016000
0
VERTEX
8
1
10
0.400000
20
-1.700000
0
VERTEX
8
1
10
0.600000
20
-1.700000
0
SEQEND
8
1
0
TEXT
8
0
10
0.500000
20
-1.682000
40
0.080000
41
1.000000
1
A
0
POLYLINE
8
1
66
1
40
0.016000
41
0.016000
0
VERTEX
8
1
10
0.400000
20
-1.800000
0
VERTEX
8
1
10
0.600000
20
-1.800000
0
SEQEND
8
1
0
TEXT
8
0
10
0.500000
20
-1.782000
40
0.080000
41
1.000000
1
B
0
POLYLINE
8
1
66
1
40
0.016000
41
0.016000
0
VERTEX
8
1
10
0.400000
20
-1.900000
0
VERTEX
8
1
10
0.600000
20
-1.900000
0
SEQEND
8
1
0
TEXT
8
0
10
0.500000
20
-1.882000
40
0.080000
41
1.000000
1
C
0
POLYLINE
8
1
66
1
40
0.016000
41
0.016000
0
VERTEX
8
1
10
0.300000
20
-3.600000
0
VERTEX
8
1
10
0.500000
20
-3.600000
0
SEQEND
8
1
0
TEXT
8
0
10
0.400000
20
-3.582000
40
0.080000
41
1.000000
1
A
0
POLYLINE
8
1
66
1
40
0.016000
41
0.016000
0
VERTEX
8
1
10
0.300000
20
-3.700000
0
VERTEX
8
1
10
0.500000
20
-3.700000
0
SEQEND
8
1
0
TEXT
8
0
10
0.400000
20
-3.682000
40
0.080000
41
1.000000
1
B
0
POLYLINE
8
1
66
1
40
0.016000
41
0.016000
0
VERTEX
8
1
10
0.300000
20
-3.800000
0
VERTEX
8
1
10
0.500000
20
-3.800000
0
SEQEND
8
1
0
TEXT
8
0
10
0.400000
20
-3.782000
40
0.080000
41
1.000000
1
C
0
POLYLINE
8
1
66
1
40
0.016000
41
0.016000
0
VERTEX
8
1
10
0.300000
20
-4.100000
0
VERTEX
8
1
10
0.300000
20
-4.000000
0
VERTEX
8
1
10
0.500000
20
-4.000000
0
SEQEND
8
1
0
POLYLINE
8
1
66
1
40
0.016000
41
0.016000
0
VERTEX
8
1
10
0.300000
20
-2.100000
0
VERTEX
8
1
10
0.300000
20
-2.000000
0
VERTEX
8
1
10
0.600000
20
-2.000000
0
VERTEX
8
1
10
0.600000
20
-2.100000
0
SEQEND
8
1
0
POLYLINE
8
1
66
1
40
0.016000
41
0.016000
0
VERTEX
8
1
10
0.400000
20
-0.400000
0
VERTEX
8
1
10
0.400000
20
-0.300000
0
VERTEX
8
1
10
0.500000
20
-0.300000
0
VERTEX
8
1
10
0.500000
20
-0.400000
0
SEQEND
8
1
0
POLYLINE
8
1
66
1
40
0.016000
41
0.016000
0
VERTEX
8
1
10
0.300000
20
1.500000
0
VERTEX
8
1
10
0.300000
20
1.600000
0
VERTEX
8
1
10
0.500000
20
1.600000
0
VERTEX
8
1
10
0.500000
20
1.500000
0
SEQEND
8
1
0
POLYLINE
8
1
66
1
40
0.016000
41
0.016000
0
VERTEX
8
1
10
2.600000
20
0.200000
0
VERTEX
8
1
10
2.400000
20
0.200000
0
VERTEX
8
1
10
2.400000
20
0.000000
0
SEQEND
8
1
0
POLYLINE
8
1
66
1
40
0.016000
41
0.016000
0
VERTEX
8
1
10
3.800000
20
0.900000
0
VERTEX
8
1
10
4.000000
20
0.900000
0
VERTEX
8
1
10
4.000000
20
1.000000
0
SEQEND
8
1
0
POLYLINE
8
1
66
1
40
0.016000
41
0.016000
0
VERTEX
8
1
10
3.800000
20
0.800000
0
VERTEX
8
1
10
4.100000
20
0.800000
0
VERTEX
8
1
10
4.100000
20
1.000000
0
SEQEND
8
1
0
POLYLINE
8
1
66
1
40
0.016000
41
0.016000
0
VERTEX
8
1
10
3.800000
20
0.700000
0
VERTEX
8
1
10
4.200000
20
0.700000
0
VERTEX
8
1
10
4.200000
20
1.000000
0
SEQEND
8
1
0
POLYLINE
8
1
66
1
40
0.016000
41
0.016000
0
VERTEX
8
1
10
3.800000
20
0.600000
0
VERTEX
8
1
10
4.300000
20
0.600000
0
VERTEX
8
1
10
4.300000
20
1.000000
0
SEQEND
8
1
0
POLYLINE
8
1
66
1
40
0.016000
41
0.016000
0
VERTEX
8
1
10
3.800000
20
0.500000
0
VERTEX
8
1
10
4.400000
20
0.500000
0
VERTEX
8
1
10
4.400000
20
1.000000
0
SEQEND
8
1
0
POLYLINE
8
1
66
1
40
0.016000
41
0.016000
0
VERTEX
8
1
10
3.800000
20
0.400000
0
VERTEX
8
1
10
4.500000
20
0.400000
0
VERTEX
8
1
10
4.500000
20
1.000000
0
SEQEND
8
1
0
POLYLINE
8
1
66
1
40
0.016000
41
0.016000
0
VERTEX
8
1
10
3.800000
20
0.300000
0
VERTEX
8
1
10
4.600000
20
0.300000
0
VERTEX
8
1
10
4.600000
20
1.000000
0
SEQEND
8
1
0
POLYLINE
8
1
66
1
40
0.016000
41
0.016000
0
VERTEX
8
1
10
2.400000
20
0.900000
0
VERTEX
8
1
10
2.600000
20
0.900000
0
SEQEND
8
1
0
TEXT
8
0
10
2.500000
20
0.918000
40
0.080000
41
1.000000
1
Y0
0
POLYLINE
8
1
66
1
40
0.016000
41
0.016000
0
VERTEX
8
1
10
2.400000
20
0.800000
0
VERTEX
8
1
10
2.600000
20
0.800000
0
SEQEND
8
1
0
TEXT
8
0
10
2.500000
20
0.818000
40
0.080000
41
1.000000
1
Y1
0
POLYLINE
8
1
66
1
40
0.016000
41
0.016000
0
VERTEX
8
1
10
2.400000
20
0.700000
0
VERTEX
8
1
10
2.600000
20
0.700000
0
SEQEND
8
1
0
TEXT
8
0
10
2.500000
20
0.718000
40
0.080000
41
1.000000
1
Y2
0
POLYLINE
8
1
66
1
40
0.016000
41
0.016000
0
VERTEX
8
1
10
2.400000
20
0.600000
0
VERTEX
8
1
10
2.600000
20
0.600000
0
SEQEND
8
1
0
TEXT
8
0
10
2.500000
20
0.618000
40
0.080000
41
1.000000
1
Y3
0
POLYLINE
8
1
66
1
40
0.016000
41
0.016000
0
VERTEX
8
1
10
2.400000
20
0.300000
0
VERTEX
8
1
10
2.400000
20
0.400000
0
VERTEX
8
1
10
2.600000
20
0.400000
0
SEQEND
8
1
0
POLYLINE
8
1
66
1
40
0.016000
41
0.016000
0
VERTEX
8
1
10
2.400000
20
0.300000
0
VERTEX
8
1
10
2.300000
20
0.300000
0
VERTEX
8
1
10
2.300000
20
0.400000
0
SEQEND
8
1
0
POLYLINE
8
1
66
1
40
0.016000
41
0.016000
0
VERTEX
8
1
10
2.400000
20
0.300000
0
VERTEX
8
1
10
2.600000
20
0.300000
0
SEQEND
8
1
0
POLYLINE
8
1
66
1
40
0.016000
41
0.016000
0
VERTEX
8
1
10
2.800000
20
-0.700000
0
VERTEX
8
1
10
2.000000
20
-0.700000
0
VERTEX
8
1
10
2.000000
20
-2.300000
0
VERTEX
8
1
10
2.600000
20
-2.300000
0
SEQEND
8
1
0
POLYLINE
8
1
66
1
40
0.016000
41
0.016000
0
VERTEX
8
1
10
4.100000
20
-1.400000
0
VERTEX
8
1
10
3.600000
20
-1.400000
0
SEQEND
8
1
0
TEXT
8
0
10
3.700000
20
-1.382000
40
0.080000
41
1.000000
1
A
0
POLYLINE
8
1
66
1
40
0.016000
41
0.016000
0
VERTEX
8
1
10
4.100000
20
-1.500000
0
VERTEX
8
1
10
3.600000
20
-1.500000
0
SEQEND
8
1
0
TEXT
8
0
10
3.700000
20
-1.482000
40
0.080000
41
1.000000
1
B
0
POLYLINE
8
1
66
1
40
0.016000
41
0.016000
0
VERTEX
8
1
10
4.100000
20
-1.900000
0
VERTEX
8
1
10
3.800000
20
-1.900000
0
VERTEX
8
1
10
3.800000
20
-2.200000
0
VERTEX
8
1
10
3.700000
20
-2.200000
0
VERTEX
8
1
10
3.700000
20
-2.100000
0
SEQEND
8
1
0
POLYLINE
8
1
66
1
40
0.016000
41
0.016000
0
VERTEX
8
1
10
5.100000
20
-1.400000
0
VERTEX
8
1
10
6.200000
20
-1.400000
0
VERTEX
8
1
10
6.200000
20
1.600000
0
SEQEND
8
1
0
POLYLINE
8
1
66
1
40
0.016000
41
0.016000
0
VERTEX
8
1
10
5.100000
20
-1.500000
0
VERTEX
8
1
10
6.300000
20
-1.500000
0
VERTEX
8
1
10
6.300000
20
1.600000
0
SEQEND
8
1
0
POLYLINE
8
1
66
1
40
0.016000
41
0.016000
0
VERTEX
8
1
10
5.100000
20
-1.600000
0
VERTEX
8
1
10
6.400000
20
-1.600000
0
VERTEX
8
1
10
6.400000
20
1.600000
0
SEQEND
8
1
0
POLYLINE
8
1
66
1
40
0.016000
41
0.016000
0
VERTEX
8
1
10
5.100000
20
-1.700000
0
VERTEX
8
1
10
6.500000
20
-1.700000
0
VERTEX
8
1
10
6.500000
20
1.600000
0
SEQEND
8
1
0
POLYLINE
8
1
66
1
40
0.016000
41
0.016000
0
VERTEX
8
1
10
2.400000
20
-1.500000
0
VERTEX
8
1
10
2.400000
20
-1.400000
0
VERTEX
8
1
10
2.600000
20
-1.400000
0
SEQEND
8
1
0
POLYLINE
8
1
66
1
40
0.016000
41
0.016000
0
VERTEX
8
1
10
2.400000
20
-1.500000
0
VERTEX
8
1
10
2.600000
20
-1.500000
0
SEQEND
8
1
0
POLYLINE
8
1
66
1
40
0.016000
41
0.016000
0
VERTEX
8
1
10
2.400000
20
-1.600000
0
VERTEX
8
1
10
2.400000
20
-1.500000
0
SEQEND
8
1
0
POLYLINE
8
1
66
1
40
0.016000
41
0.016000
0
VERTEX
8
1
10
2.400000
20
-1.600000
0
VERTEX
8
1
10
2.600000
20
-1.600000
0
SEQEND
8
1
0
POLYLINE
8
1
66
1
40
0.016000
41
0.016000
0
VERTEX
8
1
10
2.400000
20
-1.700000
0
VERTEX
8
1
10
2.400000
20
-1.600000
0
SEQEND
8
1
0
POLYLINE
8
1
66
1
40
0.016000
41
0.016000
0
VERTEX
8
1
10
2.400000
20
-1.700000
0
VERTEX
8
1
10
2.400000
20
-2.500000
0
SEQEND
8
1
0
POLYLINE
8
1
66
1
40
0.016000
41
0.016000
0
VERTEX
8
1
10
2.400000
20
-1.700000
0
VERTEX
8
1
10
2.600000
20
-1.700000
0
SEQEND
8
1
0
POLYLINE
8
1
66
1
40
0.016000
41
0.016000
0
VERTEX
8
1
10
4.000000
20
-2.100000
0
VERTEX
8
1
10
4.000000
20
-2.000000
0
VERTEX
8
1
10
4.100000
20
-2.000000
0
SEQEND
8
1
0
POLYLINE
8
1
66
1
40
0.016000
41
0.016000
0
VERTEX
8
1
10
4.000000
20
-2.100000
0
VERTEX
8
1
10
4.000000
20
-2.300000
0
SEQEND
8
1
0
POLYLINE
8
1
66
1
40
0.016000
41
0.016000
0
VERTEX
8
1
10
4.000000
20
-2.100000
0
VERTEX
8
1
10
4.100000
20
-2.100000
0
SEQEND
8
1
0
POLYLINE
8
1
66
1
40
0.016000
41
0.016000
0
VERTEX
8
1
10
2.100000
20
-1.900000
0
VERTEX
8
1
10
2.600000
20
-1.900000
0
SEQEND
8
1
0
POLYLINE
8
1
66
1
40
0.016000
41
0.016000
0
VERTEX
8
1
10
2.100000
20
-1.900000
0
VERTEX
8
1
10
2.100000
20
-1.800000
0
SEQEND
8
1
0
POLYLINE
8
1
66
1
40
0.016000
41
0.016000
0
VERTEX
8
1
10
2.100000
20
-2.000000
0
VERTEX
8
1
10
2.600000
20
-2.000000
0
SEQEND
8
1
0
POLYLINE
8
1
66
1
40
0.016000
41
0.016000
0
VERTEX
8
1
10
2.100000
20
-2.000000
0
VERTEX
8
1
10
2.100000
20
-1.900000
0
SEQEND
8
1
0
POLYLINE
8
1
66
1
40
0.016000
41
0.016000
0
VERTEX
8
1
10
2.100000
20
-2.000000
0
VERTEX
8
1
10
2.100000
20
-2.200000
0
VERTEX
8
1
10
2.600000
20
-2.200000
0
SEQEND
8
1
0
POLYLINE
8
1
66
1
40
0.016000
41
0.016000
0
VERTEX
8
1
10
2.100000
20
-3.000000
0
VERTEX
8
1
10
2.600000
20
-3.000000
0
VERTEX
8
1
10
2.600000
20
-2.100000
0
SEQEND
8
1
0
POLYLINE
8
1
66
1
40
0.016000
41
0.016000
0
VERTEX
8
1
10
4.000000
20
-1.600000
0
VERTEX
8
1
10
3.600000
20
-1.600000
0
SEQEND
8
1
0
TEXT
8
0
10
3.700000
20
-1.582000
40
0.080000
41
1.000000
1
C
0
POLYLINE
8
1
66
1
40
0.016000
41
0.016000
0
VERTEX
8
1
10
4.000000
20
-1.600000
0
VERTEX
8
1
10
4.100000
20
-1.600000
0
SEQEND
8
1
0
POLYLINE
8
1
66
1
40
0.016000
41
0.016000
0
VERTEX
8
1
10
4.000000
20
-0.800000
0
VERTEX
8
1
10
4.000000
20
-0.600000
0
VERTEX
8
1
10
3.800000
20
-0.600000
0
SEQEND
8
1
0
POLYLINE
8
1
66
1
40
0.016000
41
0.016000
0
VERTEX
8
1
10
4.000000
20
-0.800000
0
VERTEX
8
1
10
4.000000
20
-1.600000
0
SEQEND
8
1
0
POLYLINE
8
1
66
1
40
0.016000
41
0.016000
0
VERTEX
8
1
10
4.000000
20
-0.800000
0
VERTEX
8
1
10
3.800000
20
-0.800000
0
SEQEND
8
1
0
POLYLINE
8
2
66
1
40
0.016000
41
0.016000
0
VERTEX
8
2
10
-5.900000
20
0.700000
0
VERTEX
8
2
10
-5.300000
20
0.700000
0
VERTEX
8
2
10
-5.300000
20
1.800000
0
VERTEX
8
2
10
-5.900000
20
1.800000
0
VERTEX
8
2
10
-5.900000
20
0.700000
0
SEQEND
8
2
0
POLYLINE
8
2
66
1
40
0.016000
41
0.016000
0
VERTEX
8
2
10
-6.100000
20
1.700000
0
VERTEX
8
2
10
-5.900000
20
1.700000
0
SEQEND
8
2
0
TEXT
8
0
10
-5.850000
20
1.660000
40
0.080000
41
1.000000
1
D0
0
TEXT
8
0
10
-6.080000
20
1.710000
40
0.080000
41
1.000000
1
3
0
POLYLINE
8
2
66
1
40
0.016000
41
0.016000
0
VERTEX
8
2
10
-5.100000
20
1.700000
0
VERTEX
8
2
10
-5.300000
20
1.700000
0
SEQEND
8
2
0
TEXT
8
0
10
-5.510000
20
1.660000
40
0.080000
41
1.000000
1
Q0
0
TEXT
8
0
10
-5.200000
20
1.710000
40
0.080000
41
1.000000
1
14
0
POLYLINE
8
2
66
1
40
0.016000
41
0.016000
0
VERTEX
8
2
10
-6.100000
20
1.600000
0
VERTEX
8
2
10
-5.900000
20
1.600000
0
SEQEND
8
2
0
TEXT
8
0
10
-5.850000
20
1.560000
40
0.080000
41
1.000000
1
D1
0
TEXT
8
0
10
-6.080000
20
1.610000
40
0.080000
41
1.000000
1
4
0
POLYLINE
8
2
66
1
40
0.016000
41
0.016000
0
VERTEX
8
2
10
-5.100000
20
1.600000
0
VERTEX
8
2
10
-5.300000
20
1.600000
0
SEQEND
8
2
0
TEXT
8
0
10
-5.510000
20
1.560000
40
0.080000
41
1.000000
1
Q1
0
TEXT
8
0
10
-5.200000
20
1.610000
40
0.080000
41
1.000000
1
13
0
POLYLINE
8
2
66
1
40
0.016000
41
0.016000
0
VERTEX
8
2
10
-6.100000
20
1.500000
0
VERTEX
8
2
10
-5.900000
20
1.500000
0
SEQEND
8
2
0
TEXT
8
0
10
-5.850000
20
1.460000
40
0.080000
41
1.000000
1
D2
0
TEXT
8
0
10
-6.080000
20
1.510000
40
0.080000
41
1.000000
1
5
0
POLYLINE
8
2
66
1
40
0.016000
41
0.016000
0
VERTEX
8
2
10
-5.100000
20
1.500000
0
VERTEX
8
2
10
-5.300000
20
1.500000
0
SEQEND
8
2
0
TEXT
8
0
10
-5.510000
20
1.460000
40
0.080000
41
1.000000
1
Q2
0
TEXT
8
0
10
-5.200000
20
1.510000
40
0.080000
41
1.000000
1
12
0
POLYLINE
8
2
66
1
40
0.016000
41
0.016000
0
VERTEX
8
2
10
-6.100000
20
1.400000
0
VERTEX
8
2
10
-5.900000
20
1.400000
0
SEQEND
8
2
0
TEXT
8
0
10
-5.850000
20
1.360000
40
0.080000
41
1.000000
1
D3
0
TEXT
8
0
10
-6.080000
20
1.410000
40
0.080000
41
1.000000
1
6
0
POLYLINE
8
2
66
1
40
0.016000
41
0.016000
0
VERTEX
8
2
10
-5.100000
20
1.400000
0
VERTEX
8
2
10
-5.300000
20
1.400000
0
SEQEND
8
2
0
TEXT
8
0
10
-5.510000
20
1.360000
40
0.080000
41
1.000000
1
Q3
0
TEXT
8
0
10
-5.200000
20
1.410000
40
0.080000
41
1.000000
1
11
0
POLYLINE
8
2
66
1
40
0.016000
41
0.016000
0
VERTEX
8
2
10
-5.100000
20
1.300000
0
VERTEX
8
2
10
-5.300000
20
1.300000
0
SEQEND
8
2
0
TEXT
8
0
10
-5.590000
20
1.260000
40
0.080000
41
1.000000
1
RCO
0
TEXT
8
0
10
-5.200000
20
1.310000
40
0.080000
41
1.000000
1
15
0
POLYLINE
8
2
66
1
40
0.016000
41
0.016000
0
VERTEX
8
2
10
-6.100000
20
1.200000
0
VERTEX
8
2
10
-5.900000
20
1.200000
0
SEQEND
8
2
0
TEXT
8
0
10
-5.850000
20
1.160000
40
0.080000
41
1.000000
1
ENP
0
TEXT
8
0
10
-6.080000
20
1.210000
40
0.080000
41
1.000000
1
7
0
POLYLINE
8
2
66
1
40
0.016000
41
0.016000
0
VERTEX
8
2
10
-6.100000
20
1.100000
0
VERTEX
8
2
10
-5.900000
20
1.100000
0
SEQEND
8
2
0
TEXT
8
0
10
-5.850000
20
1.060000
40
0.080000
41
1.000000
1
ENT
0
TEXT
8
0
10
-6.160000
20
1.110000
40
0.080000
41
1.000000
1
10
0
POLYLINE
8
2
66
1
40
0.016000
41
0.016000
0
VERTEX
8
2
10
-5.900000
20
1.030000
0
VERTEX
8
2
10
-5.870000
20
1.000000
0
VERTEX
8
2
10
-5.900000
20
0.970000
0
VERTEX
8
2
10
-5.900000
20
1.030000
0
SEQEND
8
2
0
POLYLINE
8
2
66
1
40
0.016000
41
0.016000
0
VERTEX
8
2
10
-6.100000
20
1.000000
0
VERTEX
8
2
10
-5.900000
20
1.000000
0
SEQEND
8
2
0
TEXT
8
0
10
-5.850000
20
0.960000
40
0.080000
41
1.000000
1
CLK
0
TEXT
8
0
10
-6.080000
20
1.010000
40
0.080000
41
1.000000
1
2
0
CIRCLE
8
2
10
-5.930000
20
0.900000
40
0.030000
0
POLYLINE
8
2
66
1
40
0.016000
41
0.016000
0
VERTEX
8
2
10
-6.100000
20
0.900000
0
VERTEX
8
2
10
-5.960000
20
0.900000
0
SEQEND
8
2
0
TEXT
8
0
10
-5.850000
20
0.860000
40
0.080000
41
1.000000
1
LOAD
0
TEXT
8
0
10
-6.080000
20
0.910000
40
0.080000
41
1.000000
1
9
0
CIRCLE
8
2
10
-5.930000
20
0.800000
40
0.030000
0
POLYLINE
8
2
66
1
40
0.016000
41
0.016000
0
VERTEX
8
2
10
-6.100000
20
0.800000
0
VERTEX
8
2
10
-5.960000
20
0.800000
0
SEQEND
8
2
0
TEXT
8
0
10
-5.850000
20
0.760000
40
0.080000
41
1.000000
1
MR
0
TEXT
8
0
10
-6.080000
20
0.810000
40
0.080000
41
1.000000
1
1
0
TEXT
8
0
10
-5.908000
20
1.823000
40
0.120000
41
0.666667
1
U1
0
TEXT
8
0
10
-5.908000
20
0.602000
40
0.080000
41
1.000000
1
74LS161
0
POLYLINE
8
2
66
1
40
0.016000
41
0.016000
0
VERTEX
8
2
10
-3.300000
20
0.600000
0
VERTEX
8
2
10
-2.700000
20
0.600000
0
VERTEX
8
2
10
-2.700000
20
1.700000
0
VERTEX
8
2
10
-3.300000
20
1.700000
0
VERTEX
8
2
10
-3.300000
20
0.600000
0
SEQEND
8
2
0
POLYLINE
8
2
66
1
40
0.016000
41
0.016000
0
VERTEX
8
2
10
-3.500000
20
1.600000
0
VERTEX
8
2
10
-3.300000
20
1.600000
0
SEQEND
8
2
0
TEXT
8
0
10
-3.250000
20
1.560000
40
0.080000
41
1.000000
1
D0
0
TEXT
8
0
10
-3.480000
20
1.610000
40
0.080000
41
1.000000
1
3
0
POLYLINE
8
2
66
1
40
0.016000
41
0.016000
0
VERTEX
8
2
10
-2.500000
20
1.600000
0
VERTEX
8
2
10
-2.700000
20
1.600000
0
SEQEND
8
2
0
TEXT
8
0
10
-2.910000
20
1.560000
40
0.080000
41
1.000000
1
Q0
0
TEXT
8
0
10
-2.600000
20
1.610000
40
0.080000
41
1.000000
1
14
0
POLYLINE
8
2
66
1
40
0.016000
41
0.016000
0
VERTEX
8
2
10
-3.500000
20
1.500000
0
VERTEX
8
2
10
-3.300000
20
1.500000
0
SEQEND
8
2
0
TEXT
8
0
10
-3.250000
20
1.460000
40
0.080000
41
1.000000
1
D1
0
TEXT
8
0
10
-3.480000
20
1.510000
40
0.080000
41
1.000000
1
4
0
POLYLINE
8
2
66
1
40
0.016000
41
0.016000
0
VERTEX
8
2
10
-2.500000
20
1.500000
0
VERTEX
8
2
10
-2.700000
20
1.500000
0
SEQEND
8
2
0
TEXT
8
0
10
-2.910000
20
1.460000
40
0.080000
41
1.000000
1
Q1
0
TEXT
8
0
10
-2.600000
20
1.510000
40
0.080000
41
1.000000
1
13
0
POLYLINE
8
2
66
1
40
0.016000
41
0.016000
0
VERTEX
8
2
10
-3.500000
20
1.400000
0
VERTEX
8
2
10
-3.300000
20
1.400000
0
SEQEND
8
2
0
TEXT
8
0
10
-3.250000
20
1.360000
40
0.080000
41
1.000000
1
D2
0
TEXT
8
0
10
-3.480000
20
1.410000
40
0.080000
41
1.000000
1
5
0
POLYLINE
8
2
66
1
40
0.016000
41
0.016000
0
VERTEX
8
2
10
-2.500000
20
1.400000
0
VERTEX
8
2
10
-2.700000
20
1.400000
0
SEQEND
8
2
0
TEXT
8
0
10
-2.910000
20
1.360000
40
0.080000
41
1.000000
1
Q2
0
TEXT
8
0
10
-2.600000
20
1.410000
40
0.080000
41
1.000000
1
12
0
POLYLINE
8
2
66
1
40
0.016000
41
0.016000
0
VERTEX
8
2
10
-3.500000
20
1.300000
0
VERTEX
8
2
10
-3.300000
20
1.300000
0
SEQEND
8
2
0
TEXT
8
0
10
-3.250000
20
1.260000
40
0.080000
41
1.000000
1
D3
0
TEXT
8
0
10
-3.480000
20
1.310000
40
0.080000
41
1.000000
1
6
0
POLYLINE
8
2
66
1
40
0.016000
41
0.016000
0
VERTEX
8
2
10
-2.500000
20
1.300000
0
VERTEX
8
2
10
-2.700000
20
1.300000
0
SEQEND
8
2
0
TEXT
8
0
10
-2.910000
20
1.260000
40
0.080000
41
1.000000
1
Q3
0
TEXT
8
0
10
-2.600000
20
1.310000
40
0.080000
41
1.000000
1
11
0
POLYLINE
8
2
66
1
40
0.016000
41
0.016000
0
VERTEX
8
2
10
-2.500000
20
1.200000
0
VERTEX
8
2
10
-2.700000
20
1.200000
0
SEQEND
8
2
0
TEXT
8
0
10
-2.990000
20
1.160000
40
0.080000
41
1.000000
1
RCO
0
TEXT
8
0
10
-2.600000
20
1.210000
40
0.080000
41
1.000000
1
15
0
POLYLINE
8
2
66
1
40
0.016000
41
0.016000
0
VERTEX
8
2
10
-3.500000
20
1.100000
0
VERTEX
8
2
10
-3.300000
20
1.100000
0
SEQEND
8
2
0
TEXT
8
0
10
-3.250000
20
1.060000
40
0.080000
41
1.000000
1
ENP
0
TEXT
8
0
10
-3.480000
20
1.110000
40
0.080000
41
1.000000
1
7
0
POLYLINE
8
2
66
1
40
0.016000
41
0.016000
0
VERTEX
8
2
10
-3.500000
20
1.000000
0
VERTEX
8
2
10
-3.300000
20
1.000000
0
SEQEND
8
2
0
TEXT
8
0
10
-3.250000
20
0.960000
40
0.080000
41
1.000000
1
ENT
0
TEXT
8
0
10
-3.560000
20
1.010000
40
0.080000
41
1.000000
1
10
0
POLYLINE
8
2
66
1
40
0.016000
41
0.016000
0
VERTEX
8
2
10
-3.300000
20
0.930000
0
VERTEX
8
2
10
-3.270000
20
0.900000
0
VERTEX
8
2
10
-3.300000
20
0.870000
0
VERTEX
8
2
10
-3.300000
20
0.930000
0
SEQEND
8
2
0
POLYLINE
8
2
66
1
40
0.016000
41
0.016000
0
VERTEX
8
2
10
-3.500000
20
0.900000
0
VERTEX
8
2
10
-3.300000
20
0.900000
0
SEQEND
8
2
0
TEXT
8
0
10
-3.250000
20
0.860000
40
0.080000
41
1.000000
1
CLK
0
TEXT
8
0
10
-3.480000
20
0.910000
40
0.080000
41
1.000000
1
2
0
CIRCLE
8
2
10
-3.330000
20
0.800000
40
0.030000
0
POLYLINE
8
2
66
1
40
0.016000
41
0.016000
0
VERTEX
8
2
10
-3.500000
20
0.800000
0
VERTEX
8
2
10
-3.360000
20
0.800000
0
SEQEND
8
2
0
TEXT
8
0
10
-3.250000
20
0.760000
40
0.080000
41
1.000000
1
LOAD
0
TEXT
8
0
10
-3.480000
20
0.810000
40
0.080000
41
1.000000
1
9
0
CIRCLE
8
2
10
-3.330000
20
0.700000
40
0.030000
0
POLYLINE
8
2
66
1
40
0.016000
41
0.016000
0
VERTEX
8
2
10
-3.500000
20
0.700000
0
VERTEX
8
2
10
-3.360000
20
0.700000
0
SEQEND
8
2
0
TEXT
8
0
10
-3.250000
20
0.660000
40
0.080000
41
1.000000
1
MR
0
TEXT
8
0
10
-3.480000
20
0.710000
40
0.080000
41
1.000000
1
1
0
TEXT
8
0
10
-3.308000
20
1.723000
40
0.120000
41
0.666667
1
U2
0
TEXT
8
0
10
-3.308000
20
0.502000
40
0.080000
41
1.000000
1
74LS161
0
POLYLINE
8
1
66
1
40
0.016000
41
0.016000
0
VERTEX
8
1
10
-6.300000
20
0.300000
0
VERTEX
8
1
10
-6.300000
20
0.200000
0
SEQEND
8
1
0
POLYLINE
8
1
66
1
40
0.016000
41
0.016000
0
VERTEX
8
1
10
-6.400000
20
0.200000
0
VERTEX
8
1
10
-6.200000
20
0.200000
0
SEQEND
8
1
0
POLYLINE
8
1
66
1
40
0.016000
41
0.016000
0
VERTEX
8
1
10
-6.350000
20
0.150000
0
VERTEX
8
1
10
-6.250000
20
0.150000
0
SEQEND
8
1
0
POLYLINE
8
1
66
1
40
0.016000
41
0.016000
0
VERTEX
8
1
10
-6.310000
20
0.100000
0
VERTEX
8
1
10
-6.290000
20
0.100000
0
SEQEND
8
1
0
POLYLINE
8
1
66
1
40
0.016000
41
0.016000
0
VERTEX
8
1
10
-7.450000
20
1.200000
0
VERTEX
8
1
10
-7.400000
20
1.300000
0
VERTEX
8
1
10
-7.350000
20
1.200000
0
VERTEX
8
1
10
-7.450000
20
1.200000
0
SEQEND
8
1
0
POLYLINE
8
1
66
1
40
0.016000
41
0.016000
0
VERTEX
8
1
10
-7.400000
20
1.100000
0
VERTEX
8
1
10
-7.400000
20
1.300000
0
SEQEND
8
1
0
POLYLINE
8
1
66
1
40
0.016000
41
0.016000
0
VERTEX
8
1
10
-4.250000
20
1.300000
0
VERTEX
8
1
10
-4.200000
20
1.400000
0
VERTEX
8
1
10
-4.150000
20
1.300000
0
VERTEX
8
1
10
-4.250000
20
1.300000
0
SEQEND
8
1
0
POLYLINE
8
1
66
1
40
0.016000
41
0.016000
0
VERTEX
8
1
10
-4.200000
20
1.200000
0
VERTEX
8
1
10
-4.200000
20
1.400000
0
SEQEND
8
1
0
POLYLINE
8
1
66
1
40
0.016000
41
0.016000
0
VERTEX
8
1
10
-3.900000
20
0.500000
0
VERTEX
8
1
10
-3.900000
20
0.400000
0
SEQEND
8
1
0
POLYLINE
8
1
66
1
40
0.016000
41
0.016000
0
VERTEX
8
1
10
-4.000000
20
0.400000
0
VERTEX
8
1
10
-3.800000
20
0.400000
0
SEQEND
8
1
0
POLYLINE
8
1
66
1
40
0.016000
41
0.016000
0
VERTEX
8
1
10
-3.950000
20
0.350000
0
VERTEX
8
1
10
-3.850000
20
0.350000
0
SEQEND
8
1
0
POLYLINE
8
1
66
1
40
0.016000
41
0.016000
0
VERTEX
8
1
10
-3.910000
20
0.300000
0
VERTEX
8
1
10
-3.890000
20
0.300000
0
SEQEND
8
1
0
POLYLINE
8
3
66
1
40
0.008000
41
0.008000
0
VERTEX
8
3
10
-5.650000
20
-0.450000
0
VERTEX
8
3
10
-5.750000
20
-0.400000
0
VERTEX
8
3
10
-5.700000
20
-0.350000
0
VERTEX
8
3
10
-5.650000
20
-0.450000
0
SEQEND
8
3
0
POLYLINE
8
3
66
1
40
0.008000
41
0.008000
0
VERTEX
8
3
10
-5.600000
20
-0.500000
0
VERTEX
8
3
10
-5.650000
20
-0.450000
0
SEQEND
8
3
0
POLYLINE
8
3
66
1
40
0.008000
41
0.008000
0
VERTEX
8
3
10
-5.600000
20
-0.470000
0
VERTEX
8
3
10
-5.560000
20
-0.470000
0
VERTEX
8
3
10
-5.560000
20
-0.360000
0
VERTEX
8
3
10
-5.520000
20
-0.360000
0
VERTEX
8
3
10
-5.520000
20
-0.470000
0
VERTEX
8
3
10
-5.480000
20
-0.470000
0
VERTEX
8
3
10
-5.480000
20
-0.360000
0
VERTEX
8
3
10
-5.440000
20
-0.360000
0
VERTEX
8
3
10
-5.440000
20
-0.470000
0
VERTEX
8
3
10
-5.410000
20
-0.470000
0
SEQEND
8
3
0
TEXT
8
3
10
-6.350000
20
-0.390000
40
0.080000
41
1.000000
1
U2(CLK)
0
CIRCLE
8
1
10
-6.300000
20
1.600000
40
0.020000
0
CIRCLE
8
1
10
-6.300000
20
1.500000
40
0.020000
0
CIRCLE
8
1
10
-6.300000
20
1.400000
40
0.020000
0
CIRCLE
8
1
10
-7.300000
20
1.000000
40
0.020000
0
POLYLINE
8
2
66
1
40
0.016000
41
0.016000
0
VERTEX
8
2
10
-6.600000
20
2.200000
0
VERTEX
8
2
10
-6.598963
20
2.220374
0
VERTEX
8
2
10
-6.595918
20
2.240175
0
VERTEX
8
2
10
-6.590969
20
2.259304
0
VERTEX
8
2
10
-6.584219
20
2.277656
0
VERTEX
8
2
10
-6.575769
20
2.295130
0
VERTEX
8
2
10
-6.565723
20
2.311621
0
VERTEX
8
2
10
-6.554182
20
2.327029
0
VERTEX
8
2
10
-6.541250
20
2.341250
0
VERTEX
8
2
10
-6.527029
20
2.354182
0
VERTEX
8
2
10
-6.511621
20
2.365723
0
VERTEX
8
2
10
-6.495130
20
2.375769
0
VERTEX
8
2
10
-6.477656
20
2.384219
0
VERTEX
8
2
10
-6.459304
20
2.390969
0
VERTEX
8
2
10
-6.440176
20
2.395918
0
VERTEX
8
2
10
-6.420373
20
2.398962
0
VERTEX
8
2
10
-6.400000
20
2.400000
0
VERTEX
8
2
10
-6.000000
20
2.400000
0
VERTEX
8
2
10
-6.000000
20
2.000000
0
VERTEX
8
2
10
-6.400000
20
2.000000
0
VERTEX
8
2
10
-6.420373
20
2.001037
0
VERTEX
8
2
10
-6.440176
20
2.004082
0
VERTEX
8
2
10
-6.459304
20
2.009031
0
VERTEX
8
2
10
-6.477656
20
2.015781
0
VERTEX
8
2
10
-6.495130
20
2.024231
0
VERTEX
8
2
10
-6.511621
20
2.034277
0
VERTEX
8
2
10
-6.527029
20
2.045818
0
VERTEX
8
2
10
-6.541250
20
2.058750
0
VERTEX
8
2
10
-6.554182
20
2.072971
0
VERTEX
8
2
10
-6.565723
20
2.088379
0
VERTEX
8
2
10
-6.575769
20
2.104871
0
VERTEX
8
2
10
-6.584219
20
2.122344
0
VERTEX
8
2
10
-6.590969
20
2.140696
0
VERTEX
8
2
10
-6.595918
20
2.159824
0
VERTEX
8
2
10
-6.598963
20
2.179626
0
VERTEX
8
2
10
-6.600000
20
2.200000
0
SEQEND
8
2
0
POLYLINE
8
2
66
1
40
0.016000
41
0.016000
0
VERTEX
8
2
10
-5.800000
20
2.300000
0
VERTEX
8
2
10
-6.000000
20
2.300000
0
SEQEND
8
2
0
TEXT
8
0
10
-5.900000
20
2.310000
40
0.080000
41
1.000000
1
1
0
POLYLINE
8
2
66
1
40
0.016000
41
0.016000
0
VERTEX
8
2
10
-5.800000
20
2.100000
0
VERTEX
8
2
10
-6.000000
20
2.100000
0
SEQEND
8
2
0
TEXT
8
0
10
-5.900000
20
2.110000
40
0.080000
41
1.000000
1
2
0
CIRCLE
8
2
10
-6.630000
20
2.200000
40
0.030000
0
POLYLINE
8
2
66
1
40
0.016000
41
0.016000
0
VERTEX
8
2
10
-6.800000
20
2.200000
0
VERTEX
8
2
10
-6.660000
20
2.200000
0
SEQEND
8
2
0
TEXT
8
0
10
-6.780000
20
2.210000
40
0.080000
41
1.000000
1
3
0
TEXT
8
0
10
-6.608000
20
2.423000
40
0.120000
41
0.666667
1
U3:A
0
TEXT
8
0
10
-6.608000
20
1.902000
40
0.080000
41
1.000000
1
74HC00
0
POLYLINE
8
2
66
1
40
0.016000
41
0.016000
0
VERTEX
8
2
10
-3.500000
20
2.300000
0
VERTEX
8
2
10
-3.498963
20
2.320374
0
VERTEX
8
2
10
-3.495918
20
2.340176
0
VERTEX
8
2
10
-3.490969
20
2.359304
0
VERTEX
8
2
10
-3.484219
20
2.377656
0
VERTEX
8
2
10
-3.475769
20
2.395129
0
VERTEX
8
2
10
-3.465723
20
2.411621
0
VERTEX
8
2
10
-3.454182
20
2.427029
0
VERTEX
8
2
10
-3.441250
20
2.441250
0
VERTEX
8
2
10
-3.427029
20
2.454182
0
VERTEX
8
2
10
-3.411621
20
2.465723
0
VERTEX
8
2
10
-3.395129
20
2.475769
0
VERTEX
8
2
10
-3.377656
20
2.484219
0
VERTEX
8
2
10
-3.359304
20
2.490969
0
VERTEX
8
2
10
-3.340176
20
2.495918
0
VERTEX
8
2
10
-3.320374
20
2.498963
0
VERTEX
8
2
10
-3.300000
20
2.500000
0
VERTEX
8
2
10
-2.900000
20
2.500000
0
VERTEX
8
2
10
-2.900000
20
2.100000
0
VERTEX
8
2
10
-3.300000
20
2.100000
0
VERTEX
8
2
10
-3.320374
20
2.101038
0
VERTEX
8
2
10
-3.340176
20
2.104082
0
VERTEX
8
2
10
-3.359304
20
2.109031
0
VERTEX
8
2
10
-3.377656
20
2.115781
0
VERTEX
8
2
10
-3.395129
20
2.124231
0
VERTEX
8
2
10
-3.411621
20
2.134277
0
VERTEX
8
2
10
-3.427029
20
2.145818
0
VERTEX
8
2
10
-3.441250
20
2.158750
0
VERTEX
8
2
10
-3.454182
20
2.172971
0
VERTEX
8
2
10
-3.465723
20
2.188379
0
VERTEX
8
2
10
-3.475769
20
2.204870
0
VERTEX
8
2
10
-3.484219
20
2.222344
0
VERTEX
8
2
10
-3.490969
20
2.240696
0
VERTEX
8
2
10
-3.495918
20
2.259825
0
VERTEX
8
2
10
-3.498963
20
2.279626
0
VERTEX
8
2
10
-3.500000
20
2.300000
0
SEQEND
8
2
0
POLYLINE
8
2
66
1
40
0.016000
41
0.016000
0
VERTEX
8
2
10
-2.700000
20
2.400000
0
VERTEX
8
2
10
-2.900000
20
2.400000
0
SEQEND
8
2
0
TEXT
8
0
10
-2.800000
20
2.410000
40
0.080000
41
1.000000
1
4
0
POLYLINE
8
2
66
1
40
0.016000
41
0.016000
0
VERTEX
8
2
10
-2.700000
20
2.200000
0
VERTEX
8
2
10
-2.900000
20
2.200000
0
SEQEND
8
2
0
TEXT
8
0
10
-2.800000
20
2.210000
40
0.080000
41
1.000000
1
5
0
CIRCLE
8
2
10
-3.530000
20
2.300000
40
0.030000
0
POLYLINE
8
2
66
1
40
0.016000
41
0.016000
0
VERTEX
8
2
10
-3.700000
20
2.300000
0
VERTEX
8
2
10
-3.560000
20
2.300000
0
SEQEND
8
2
0
TEXT
8
0
10
-3.680000
20
2.310000
40
0.080000
41
1.000000
1
6
0
TEXT
8
0
10
-3.508000
20
2.523000
40
0.120000
41
0.666667
1
U3:B
0
TEXT
8
0
10
-3.508000
20
2.002000
40
0.080000
41
1.000000
1
74HC00
0
CIRCLE
8
1
10
-4.200000
20
1.100000
40
0.020000
0
CIRCLE
8
1
10
-4.200000
20
1.000000
40
0.020000
0
CIRCLE
8
1
10
-3.900000
20
1.500000
40
0.020000
0
CIRCLE
8
1
10
-3.900000
20
1.400000
40
0.020000
0
CIRCLE
8
1
10
-3.900000
20
1.300000
40
0.020000
0
CIRCLE
8
1
10
-3.700000
20
0.800000
40
0.020000
0
CIRCLE
8
1
10
-5.000000
20
1.600000
40
0.020000
0
CIRCLE
8
1
10
-4.800000
20
1.500000
40
0.020000
0
CIRCLE
8
1
10
-2.500000
20
1.600000
40
0.020000
0
CIRCLE
8
1
10
-2.400000
20
1.300000
40
0.020000
0
POLYLINE
8
2
66
1
40
0.016000
41
0.016000
0
VERTEX
8
2
10
-4.700000
20
-2.700000
0
VERTEX
8
2
10
-4.100000
20
-2.700000
0
VERTEX
8
2
10
-4.100000
20
-1.600000
0
VERTEX
8
2
10
-4.700000
20
-1.600000
0
VERTEX
8
2
10
-4.700000
20
-2.700000
0
SEQEND
8
2
0
POLYLINE
8
2
66
1
40
0.016000
41
0.016000
0
VERTEX
8
2
10
-4.900000
20
-1.700000
0
VERTEX
8
2
10
-4.700000
20
-1.700000
0
SEQEND
8
2
0
TEXT
8
0
10
-4.650000
20
-1.740000
40
0.080000
41
1.000000
1
D0
0
TEXT
8
0
10
-4.880000
20
-1.690000
40
0.080000
41
1.000000
1
3
0
POLYLINE
8
2
66
1
40
0.016000
41
0.016000
0
VERTEX
8
2
10
-3.900000
20
-1.700000
0
VERTEX
8
2
10
-4.100000
20
-1.700000
0
SEQEND
8
2
0
TEXT
8
0
10
-4.310000
20
-1.740000
40
0.080000
41
1.000000
1
Q0
0
TEXT
8
0
10
-4.000000
20
-1.690000
40
0.080000
41
1.000000
1
14
0
POLYLINE
8
2
66
1
40
0.016000
41
0.016000
0
VERTEX
8
2
10
-4.900000
20
-1.800000
0
VERTEX
8
2
10
-4.700000
20
-1.800000
0
SEQEND
8
2
0
TEXT
8
0
10
-4.650000
20
-1.840000
40
0.080000
41
1.000000
1
D1
0
TEXT
8
0
10
-4.880000
20
-1.790000
40
0.080000
41
1.000000
1
4
0
POLYLINE
8
2
66
1
40
0.016000
41
0.016000
0
VERTEX
8
2
10
-3.900000
20
-1.800000
0
VERTEX
8
2
10
-4.100000
20
-1.800000
0
SEQEND
8
2
0
TEXT
8
0
10
-4.310000
20
-1.840000
40
0.080000
41
1.000000
1
Q1
0
TEXT
8
0
10
-4.000000
20
-1.790000
40
0.080000
41
1.000000
1
13
0
POLYLINE
8
2
66
1
40
0.016000
41
0.016000
0
VERTEX
8
2
10
-4.900000
20
-1.900000
0
VERTEX
8
2
10
-4.700000
20
-1.900000
0
SEQEND
8
2
0
TEXT
8
0
10
-4.650000
20
-1.940000
40
0.080000
41
1.000000
1
D2
0
TEXT
8
0
10
-4.880000
20
-1.890000
40
0.080000
41
1.000000
1
5
0
POLYLINE
8
2
66
1
40
0.016000
41
0.016000
0
VERTEX
8
2
10
-3.900000
20
-1.900000
0
VERTEX
8
2
10
-4.100000
20
-1.900000
0
SEQEND
8
2
0
TEXT
8
0
10
-4.310000
20
-1.940000
40
0.080000
41
1.000000
1
Q2
0
TEXT
8
0
10
-4.000000
20
-1.890000
40
0.080000
41
1.000000
1
12
0
POLYLINE
8
2
66
1
40
0.016000
41
0.016000
0
VERTEX
8
2
10
-4.900000
20
-2.000000
0
VERTEX
8
2
10
-4.700000
20
-2.000000
0
SEQEND
8
2
0
TEXT
8
0
10
-4.650000
20
-2.040000
40
0.080000
41
1.000000
1
D3
0
TEXT
8
0
10
-4.880000
20
-1.990000
40
0.080000
41
1.000000
1
6
0
POLYLINE
8
2
66
1
40
0.016000
41
0.016000
0
VERTEX
8
2
10
-3.900000
20
-2.000000
0
VERTEX
8
2
10
-4.100000
20
-2.000000
0
SEQEND
8
2
0
TEXT
8
0
10
-4.310000
20
-2.040000
40
0.080000
41
1.000000
1
Q3
0
TEXT
8
0
10
-4.000000
20
-1.990000
40
0.080000
41
1.000000
1
11
0
POLYLINE
8
2
66
1
40
0.016000
41
0.016000
0
VERTEX
8
2
10
-3.900000
20
-2.100000
0
VERTEX
8
2
10
-4.100000
20
-2.100000
0
SEQEND
8
2
0
TEXT
8
0
10
-4.390000
20
-2.140000
40
0.080000
41
1.000000
1
RCO
0
TEXT
8
0
10
-4.000000
20
-2.090000
40
0.080000
41
1.000000
1
15
0
POLYLINE
8
2
66
1
40
0.016000
41
0.016000
0
VERTEX
8
2
10
-4.900000
20
-2.200000
0
VERTEX
8
2
10
-4.700000
20
-2.200000
0
SEQEND
8
2
0
TEXT
8
0
10
-4.650000
20
-2.240000
40
0.080000
41
1.000000
1
ENP
0
TEXT
8
0
10
-4.880000
20
-2.190000
40
0.080000
41
1.000000
1
7
0
POLYLINE
8
2
66
1
40
0.016000
41
0.016000
0
VERTEX
8
2
10
-4.900000
20
-2.300000
0
VERTEX
8
2
10
-4.700000
20
-2.300000
0
SEQEND
8
2
0
TEXT
8
0
10
-4.650000
20
-2.340000
40
0.080000
41
1.000000
1
ENT
0
TEXT
8
0
10
-4.960000
20
-2.290000
40
0.080000
41
1.000000
1
10
0
POLYLINE
8
2
66
1
40
0.016000
41
0.016000
0
VERTEX
8
2
10
-4.700000
20
-2.370000
0
VERTEX
8
2
10
-4.670000
20
-2.400000
0
VERTEX
8
2
10
-4.700000
20
-2.430000
0
VERTEX
8
2
10
-4.700000
20
-2.370000
0
SEQEND
8
2
0
POLYLINE
8
2
66
1
40
0.016000
41
0.016000
0
VERTEX
8
2
10
-4.900000
20
-2.400000
0
VERTEX
8
2
10
-4.700000
20
-2.400000
0
SEQEND
8
2
0
TEXT
8
0
10
-4.650000
20
-2.440000
40
0.080000
41
1.000000
1
CLK
0
TEXT
8
0
10
-4.880000
20
-2.390000
40
0.080000
41
1.000000
1
2
0
CIRCLE
8
2
10
-4.730000
20
-2.500000
40
0.030000
0
POLYLINE
8
2
66
1
40
0.016000
41
0.016000
0
VERTEX
8
2
10
-4.900000
20
-2.500000
0
VERTEX
8
2
10
-4.760000
20
-2.500000
0
SEQEND
8
2
0
TEXT
8
0
10
-4.650000
20
-2.540000
40
0.080000
41
1.000000
1
LOAD
0
TEXT
8
0
10
-4.880000
20
-2.490000
40
0.080000
41
1.000000
1
9
0
CIRCLE
8
2
10
-4.730000
20
-2.600000
40
0.030000
0
POLYLINE
8
2
66
1
40
0.016000
41
0.016000
0
VERTEX
8
2
10
-4.900000
20
-2.600000
0
VERTEX
8
2
10
-4.760000
20
-2.600000
0
SEQEND
8
2
0
TEXT
8
0
10
-4.650000
20
-2.640000
40
0.080000
41
1.000000
1
MR
0
TEXT
8
0
10
-4.880000
20
-2.590000
40
0.080000
41
1.000000
1
1
0
TEXT
8
0
10
-4.708000
20
-1.577000
40
0.120000
41
0.666667
1
U4
0
TEXT
8
0
10
-4.708000
20
-2.798000
40
0.080000
41
1.000000
1
74LS161
0
POLYLINE
8
2
66
1
40
0.016000
41
0.016000
0
VERTEX
8
2
10
-1.800000
20
-2.600000
0
VERTEX
8
2
10
-1.200000
20
-2.600000
0
VERTEX
8
2
10
-1.200000
20
-1.500000
0
VERTEX
8
2
10
-1.800000
20
-1.500000
0
VERTEX
8
2
10
-1.800000
20
-2.600000
0
SEQEND
8
2
0
POLYLINE
8
2
66
1
40
0.016000
41
0.016000
0
VERTEX
8
2
10
-2.000000
20
-1.600000
0
VERTEX
8
2
10
-1.800000
20
-1.600000
0
SEQEND
8
2
0
TEXT
8
0
10
-1.750000
20
-1.640000
40
0.080000
41
1.000000
1
D0
0
TEXT
8
0
10
-1.980000
20
-1.590000
40
0.080000
41
1.000000
1
3
0
POLYLINE
8
2
66
1
40
0.016000
41
0.016000
0
VERTEX
8
2
10
-1.000000
20
-1.600000
0
VERTEX
8
2
10
-1.200000
20
-1.600000
0
SEQEND
8
2
0
TEXT
8
0
10
-1.410000
20
-1.640000
40
0.080000
41
1.000000
1
Q0
0
TEXT
8
0
10
-1.100000
20
-1.590000
40
0.080000
41
1.000000
1
14
0
POLYLINE
8
2
66
1
40
0.016000
41
0.016000
0
VERTEX
8
2
10
-2.000000
20
-1.700000
0
VERTEX
8
2
10
-1.800000
20
-1.700000
0
SEQEND
8
2
0
TEXT
8
0
10
-1.750000
20
-1.740000
40
0.080000
41
1.000000
1
D1
0
TEXT
8
0
10
-1.980000
20
-1.690000
40
0.080000
41
1.000000
1
4
0
POLYLINE
8
2
66
1
40
0.016000
41
0.016000
0
VERTEX
8
2
10
-1.000000
20
-1.700000
0
VERTEX
8
2
10
-1.200000
20
-1.700000
0
SEQEND
8
2
0
TEXT
8
0
10
-1.410000
20
-1.740000
40
0.080000
41
1.000000
1
Q1
0
TEXT
8
0
10
-1.100000
20
-1.690000
40
0.080000
41
1.000000
1
13
0
POLYLINE
8
2
66
1
40
0.016000
41
0.016000
0
VERTEX
8
2
10
-2.000000
20
-1.800000
0
VERTEX
8
2
10
-1.800000
20
-1.800000
0
SEQEND
8
2
0
TEXT
8
0
10
-1.750000
20
-1.840000
40
0.080000
41
1.000000
1
D2
0
TEXT
8
0
10
-1.980000
20
-1.790000
40
0.080000
41
1.000000
1
5
0
POLYLINE
8
2
66
1
40
0.016000
41
0.016000
0
VERTEX
8
2
10
-1.000000
20
-1.800000
0
VERTEX
8
2
10
-1.200000
20
-1.800000
0
SEQEND
8
2
0
TEXT
8
0
10
-1.410000
20
-1.840000
40
0.080000
41
1.000000
1
Q2
0
TEXT
8
0
10
-1.100000
20
-1.790000
40
0.080000
41
1.000000
1
12
0
POLYLINE
8
2
66
1
40
0.016000
41
0.016000
0
VERTEX
8
2
10
-2.000000
20
-1.900000
0
VERTEX
8
2
10
-1.800000
20
-1.900000
0
SEQEND
8
2
0
TEXT
8
0
10
-1.750000
20
-1.940000
40
0.080000
41
1.000000
1
D3
0
TEXT
8
0
10
-1.980000
20
-1.890000
40
0.080000
41
1.000000
1
6
0
POLYLINE
8
2
66
1
40
0.016000
41
0.016000
0
VERTEX
8
2
10
-1.000000
20
-1.900000
0
VERTEX
8
2
10
-1.200000
20
-1.900000
0
SEQEND
8
2
0
TEXT
8
0
10
-1.410000
20
-1.940000
40
0.080000
41
1.000000
1
Q3
0
TEXT
8
0
10
-1.100000
20
-1.890000
40
0.080000
41
1.000000
1
11
0
POLYLINE
8
2
66
1
40
0.016000
41
0.016000
0
VERTEX
8
2
10
-1.000000
20
-2.000000
0
VERTEX
8
2
10
-1.200000
20
-2.000000
0
SEQEND
8
2
0
TEXT
8
0
10
-1.490000
20
-2.040000
40
0.080000
41
1.000000
1
RCO
0
TEXT
8
0
10
-1.100000
20
-1.990000
40
0.080000
41
1.000000
1
15
0
POLYLINE
8
2
66
1
40
0.016000
41
0.016000
0
VERTEX
8
2
10
-2.000000
20
-2.100000
0
VERTEX
8
2
10
-1.800000
20
-2.100000
0
SEQEND
8
2
0
TEXT
8
0
10
-1.750000
20
-2.140000
40
0.080000
41
1.000000
1
ENP
0
TEXT
8
0
10
-1.980000
20
-2.090000
40
0.080000
41
1.000000
1
7
0
POLYLINE
8
2
66
1
40
0.016000
41
0.016000
0
VERTEX
8
2
10
-2.000000
20
-2.200000
0
VERTEX
8
2
10
-1.800000
20
-2.200000
0
SEQEND
8
2
0
TEXT
8
0
10
-1.750000
20
-2.240000
40
0.080000
41
1.000000
1
ENT
0
TEXT
8
0
10
-2.060000
20
-2.190000
40
0.080000
41
1.000000
1
10
0
POLYLINE
8
2
66
1
40
0.016000
41
0.016000
0
VERTEX
8
2
10
-1.800000
20
-2.270000
0
VERTEX
8
2
10
-1.770000
20
-2.300000
0
VERTEX
8
2
10
-1.800000
20
-2.330000
0
VERTEX
8
2
10
-1.800000
20
-2.270000
0
SEQEND
8
2
0
POLYLINE
8
2
66
1
40
0.016000
41
0.016000
0
VERTEX
8
2
10
-2.000000
20
-2.300000
0
VERTEX
8
2
10
-1.800000
20
-2.300000
0
SEQEND
8
2
0
TEXT
8
0
10
-1.750000
20
-2.340000
40
0.080000
41
1.000000
1
CLK
0
TEXT
8
0
10
-1.980000
20
-2.290000
40
0.080000
41
1.000000
1
2
0
CIRCLE
8
2
10
-1.830000
20
-2.400000
40
0.030000
0
POLYLINE
8
2
66
1
40
0.016000
41
0.016000
0
VERTEX
8
2
10
-2.000000
20
-2.400000
0
VERTEX
8
2
10
-1.860000
20
-2.400000
0
SEQEND
8
2
0
TEXT
8
0
10
-1.750000
20
-2.440000
40
0.080000
41
1.000000
1
LOAD
0
TEXT
8
0
10
-1.980000
20
-2.390000
40
0.080000
41
1.000000
1
9
0
CIRCLE
8
2
10
-1.830000
20
-2.500000
40
0.030000
0
POLYLINE
8
2
66
1
40
0.016000
41
0.016000
0
VERTEX
8
2
10
-2.000000
20
-2.500000
0
VERTEX
8
2
10
-1.860000
20
-2.500000
0
SEQEND
8
2
0
TEXT
8
0
10
-1.750000
20
-2.540000
40
0.080000
41
1.000000
1
MR
0
TEXT
8
0
10
-1.980000
20
-2.490000
40
0.080000
41
1.000000
1
1
0
TEXT
8
0
10
-1.808000
20
-1.477000
40
0.120000
41
0.666667
1
U5
0
TEXT
8
0
10
-1.808000
20
-2.698000
40
0.080000
41
1.000000
1
74LS161
0
POLYLINE
8
2
66
1
40
0.016000
41
0.016000
0
VERTEX
8
2
10
-3.500000
20
-1.400000
0
VERTEX
8
2
10
-3.479626
20
-1.398963
0
VERTEX
8
2
10
-3.459824
20
-1.395918
0
VERTEX
8
2
10
-3.440696
20
-1.390969
0
VERTEX
8
2
10
-3.422344
20
-1.384219
0
VERTEX
8
2
10
-3.404871
20
-1.375769
0
VERTEX
8
2
10
-3.388379
20
-1.365723
0
VERTEX
8
2
10
-3.372971
20
-1.354182
0
VERTEX
8
2
10
-3.358750
20
-1.341250
0
VERTEX
8
2
10
-3.345818
20
-1.327029
0
VERTEX
8
2
10
-3.334277
20
-1.311621
0
VERTEX
8
2
10
-3.324231
20
-1.295130
0
VERTEX
8
2
10
-3.315781
20
-1.277656
0
VERTEX
8
2
10
-3.309031
20
-1.259304
0
VERTEX
8
2
10
-3.304082
20
-1.240176
0
VERTEX
8
2
10
-3.301037
20
-1.220374
0
VERTEX
8
2
10
-3.300000
20
-1.200000
0
VERTEX
8
2
10
-3.300000
20
-0.800000
0
VERTEX
8
2
10
-3.700000
20
-0.800000
0
VERTEX
8
2
10
-3.700000
20
-1.200000
0
VERTEX
8
2
10
-3.698963
20
-1.220374
0
VERTEX
8
2
10
-3.695918
20
-1.240176
0
VERTEX
8
2
10
-3.690969
20
-1.259304
0
VERTEX
8
2
10
-3.684219
20
-1.277656
0
VERTEX
8
2
10
-3.675769
20
-1.295130
0
VERTEX
8
2
10
-3.665723
20
-1.311621
0
VERTEX
8
2
10
-3.654182
20
-1.327029
0
VERTEX
8
2
10
-3.641250
20
-1.341250
0
VERTEX
8
2
10
-3.627029
20
-1.354182
0
VERTEX
8
2
10
-3.611621
20
-1.365723
0
VERTEX
8
2
10
-3.595129
20
-1.375769
0
VERTEX
8
2
10
-3.577656
20
-1.384219
0
VERTEX
8
2
10
-3.559304
20
-1.390969
0
VERTEX
8
2
10
-3.540176
20
-1.395918
0
VERTEX
8
2
10
-3.520374
20
-1.398963
0
VERTEX
8
2
10
-3.500000
20
-1.400000
0
SEQEND
8
2
0
POLYLINE
8
2
66
1
40
0.016000
41
0.016000
0
VERTEX
8
2
10
-3.400000
20
-0.600000
0
VERTEX
8
2
10
-3.400000
20
-0.800000
0
SEQEND
8
2
0
TEXT
8
0
10
-3.410000
20
-0.700000
40
0.080000
41
1.000000
50
90.000000
1
10
0
POLYLINE
8
2
66
1
40
0.016000
41
0.016000
0
VERTEX
8
2
10
-3.600000
20
-0.600000
0
VERTEX
8
2
10
-3.600000
20
-0.800000
0
SEQEND
8
2
0
TEXT
8
0
10
-3.610000
20
-0.700000
40
0.080000
41
1.000000
50
90.000000
1
9
0
CIRCLE
8
2
10
-3.500000
20
-1.430000
40
0.030000
0
POLYLINE
8
2
66
1
40
0.016000
41
0.016000
0
VERTEX
8
2
10
-3.500000
20
-1.600000
0
VERTEX
8
2
10
-3.500000
20
-1.460000
0
SEQEND
8
2
0
TEXT
8
0
10
-3.510000
20
-1.580000
40
0.080000
41
1.000000
50
90.000000
1
8
0
TEXT
8
0
10
-3.242000
20
-0.927000
40
0.120000
41
0.666667
1
U3:C
0
TEXT
8
0
10
-3.242000
20
-1.032000
40
0.080000
41
1.000000
1
74HC00
0
POLYLINE
8
2
66
1
40
0.016000
41
0.016000
0
VERTEX
8
2
10
-2.000000
20
-1.000000
0
VERTEX
8
2
10
-1.998963
20
-1.020374
0
VERTEX
8
2
10
-1.995918
20
-1.040176
0
VERTEX
8
2
10
-1.990969
20
-1.059304
0
VERTEX
8
2
10
-1.984219
20
-1.077656
0
VERTEX
8
2
10
-1.975769
20
-1.095129
0
VERTEX
8
2
10
-1.965723
20
-1.111621
0
VERTEX
8
2
10
-1.954182
20
-1.127029
0
VERTEX
8
2
10
-1.941250
20
-1.141250
0
VERTEX
8
2
10
-1.927029
20
-1.154182
0
VERTEX
8
2
10
-1.911621
20
-1.165723
0
VERTEX
8
2
10
-1.895130
20
-1.175769
0
VERTEX
8
2
10
-1.877656
20
-1.184219
0
VERTEX
8
2
10
-1.859304
20
-1.190969
0
VERTEX
8
2
10
-1.840176
20
-1.195918
0
VERTEX
8
2
10
-1.820374
20
-1.198963
0
VERTEX
8
2
10
-1.800000
20
-1.200000
0
VERTEX
8
2
10
-1.400000
20
-1.200000
0
VERTEX
8
2
10
-1.400000
20
-0.800000
0
VERTEX
8
2
10
-1.800000
20
-0.800000
0
VERTEX
8
2
10
-1.820374
20
-0.801037
0
VERTEX
8
2
10
-1.840176
20
-0.804082
0
VERTEX
8
2
10
-1.859304
20
-0.809031
0
VERTEX
8
2
10
-1.877656
20
-0.815781
0
VERTEX
8
2
10
-1.895130
20
-0.824231
0
VERTEX
8
2
10
-1.911621
20
-0.834277
0
VERTEX
8
2
10
-1.927029
20
-0.845818
0
VERTEX
8
2
10
-1.941250
20
-0.858750
0
VERTEX
8
2
10
-1.954182
20
-0.872971
0
VERTEX
8
2
10
-1.965723
20
-0.888379
0
VERTEX
8
2
10
-1.975769
20
-0.904870
0
VERTEX
8
2
10
-1.984219
20
-0.922344
0
VERTEX
8
2
10
-1.990969
20
-0.940696
0
VERTEX
8
2
10
-1.995918
20
-0.959824
0
VERTEX
8
2
10
-1.998963
20
-0.979626
0
VERTEX
8
2
10
-2.000000
20
-1.000000
0
SEQEND
8
2
0
POLYLINE
8
2
66
1
40
0.016000
41
0.016000
0
VERTEX
8
2
10
-1.200000
20
-1.100000
0
VERTEX
8
2
10
-1.400000
20
-1.100000
0
SEQEND
8
2
0
TEXT
8
0
10
-1.300000
20
-1.090000
40
0.080000
41
1.000000
1
13
0
POLYLINE
8
2
66
1
40
0.016000
41
0.016000
0
VERTEX
8
2
10
-1.200000
20
-0.900000
0
VERTEX
8
2
10
-1.400000
20
-0.900000
0
SEQEND
8
2
0
TEXT
8
0
10
-1.300000
20
-0.890000
40
0.080000
41
1.000000
1
12
0
CIRCLE
8
2
10
-2.030000
20
-1.000000
40
0.030000
0
POLYLINE
8
2
66
1
40
0.016000
41
0.016000
0
VERTEX
8
2
10
-2.200000
20
-1.000000
0
VERTEX
8
2
10
-2.060000
20
-1.000000
0
SEQEND
8
2
0
TEXT
8
0
10
-2.260000
20
-0.990000
40
0.080000
41
1.000000
1
11
0
TEXT
8
0
10
-2.008000
20
-0.777000
40
0.120000
41
0.666667
1
U3:D
0
TEXT
8
0
10
-2.008000
20
-1.298000
40
0.080000
41
1.000000
1
74HC00
0
CIRCLE
8
1
10
-2.300000
20
-2.400000
40
0.020000
0
CIRCLE
8
1
10
-3.500000
20
-2.400000
40
0.020000
0
POLYLINE
8
1
66
1
40
0.016000
41
0.016000
0
VERTEX
8
1
10
-5.300000
20
-2.700000
0
VERTEX
8
1
10
-5.300000
20
-2.800000
0
SEQEND
8
1
0
POLYLINE
8
1
66
1
40
0.016000
41
0.016000
0
VERTEX
8
1
10
-5.400000
20
-2.800000
0
VERTEX
8
1
10
-5.200000
20
-2.800000
0
SEQEND
8
1
0
POLYLINE
8
1
66
1
40
0.016000
41
0.016000
0
VERTEX
8
1
10
-5.350000
20
-2.850000
0
VERTEX
8
1
10
-5.250000
20
-2.850000
0
SEQEND
8
1
0
POLYLINE
8
1
66
1
40
0.016000
41
0.016000
0
VERTEX
8
1
10
-5.310000
20
-2.900000
0
VERTEX
8
1
10
-5.290000
20
-2.900000
0
SEQEND
8
1
0
POLYLINE
8
1
66
1
40
0.016000
41
0.016000
0
VERTEX
8
1
10
-2.100000
20
-2.600000
0
VERTEX
8
1
10
-2.100000
20
-2.700000
0
SEQEND
8
1
0
POLYLINE
8
1
66
1
40
0.016000
41
0.016000
0
VERTEX
8
1
10
-2.200000
20
-2.700000
0
VERTEX
8
1
10
-2.000000
20
-2.700000
0
SEQEND
8
1
0
POLYLINE
8
1
66
1
40
0.016000
41
0.016000
0
VERTEX
8
1
10
-2.150000
20
-2.750000
0
VERTEX
8
1
10
-2.050000
20
-2.750000
0
SEQEND
8
1
0
POLYLINE
8
1
66
1
40
0.016000
41
0.016000
0
VERTEX
8
1
10
-2.110000
20
-2.800000
0
VERTEX
8
1
10
-2.090000
20
-2.800000
0
SEQEND
8
1
0
POLYLINE
8
1
66
1
40
0.016000
41
0.016000
0
VERTEX
8
1
10
-5.150000
20
-1.400000
0
VERTEX
8
1
10
-5.100000
20
-1.300000
0
VERTEX
8
1
10
-5.050000
20
-1.400000
0
VERTEX
8
1
10
-5.150000
20
-1.400000
0
SEQEND
8
1
0
POLYLINE
8
1
66
1
40
0.016000
41
0.016000
0
VERTEX
8
1
10
-5.100000
20
-1.500000
0
VERTEX
8
1
10
-5.100000
20
-1.300000
0
SEQEND
8
1
0
POLYLINE
8
1
66
1
40
0.016000
41
0.016000
0
VERTEX
8
1
10
-2.250000
20
-1.400000
0
VERTEX
8
1
10
-2.200000
20
-1.300000
0
VERTEX
8
1
10
-2.150000
20
-1.400000
0
VERTEX
8
1
10
-2.250000
20
-1.400000
0
SEQEND
8
1
0
POLYLINE
8
1
66
1
40
0.016000
41
0.016000
0
VERTEX
8
1
10
-2.200000
20
-1.500000
0
VERTEX
8
1
10
-2.200000
20
-1.300000
0
SEQEND
8
1
0
CIRCLE
8
1
10
-2.100000
20
-1.700000
40
0.020000
0
CIRCLE
8
1
10
-2.100000
20
-1.800000
40
0.020000
0
CIRCLE
8
1
10
-2.100000
20
-1.900000
40
0.020000
0
CIRCLE
8
1
10
-2.200000
20
-2.100000
40
0.020000
0
CIRCLE
8
1
10
-4.100000
20
-0.500000
40
0.020000
0
CIRCLE
8
1
10
-5.100000
20
-2.200000
40
0.020000
0
CIRCLE
8
1
10
-5.300000
20
-1.800000
40
0.020000
0
CIRCLE
8
1
10
-5.300000
20
-1.900000
40
0.020000
0
CIRCLE
8
1
10
-5.300000
20
-2.000000
40
0.020000
0
CIRCLE
8
1
10
-0.100000
20
-1.700000
40
0.020000
0
CIRCLE
8
1
10
-0.100000
20
-1.600000
40
0.020000
0
CIRCLE
8
1
10
-0.900000
20
-1.600000
40
0.020000
0
CIRCLE
8
1
10
-0.100000
20
-1.900000
40
0.020000
0
CIRCLE
8
1
10
-0.800000
20
-1.900000
40
0.020000
0
CIRCLE
8
1
10
-0.100000
20
-1.800000
40
0.020000
0
CIRCLE
8
1
10
-0.700000
20
-1.800000
40
0.020000
0
CIRCLE
8
1
10
-3.600000
20
-1.700000
40
0.020000
0
CIRCLE
8
1
10
-3.600000
20
-1.800000
40
0.020000
0
CIRCLE
8
1
10
-3.800000
20
-1.800000
40
0.020000
0
CIRCLE
8
1
10
-3.600000
20
-1.900000
40
0.020000
0
CIRCLE
8
1
10
-3.600000
20
-2.000000
40
0.020000
0
CIRCLE
8
1
10
-6.800000
20
0.800000
40
0.020000
0
CIRCLE
8
1
10
-4.900000
20
1.400000
40
0.020000
0
CIRCLE
8
1
10
-4.600000
20
1.500000
40
0.020000
0
CIRCLE
8
1
10
-4.700000
20
1.600000
40
0.020000
0
CIRCLE
8
1
10
-4.700000
20
1.700000
40
0.020000
0
CIRCLE
8
1
10
-2.200000
20
1.600000
40
0.020000
0
CIRCLE
8
1
10
-2.200000
20
1.500000
40
0.020000
0
CIRCLE
8
1
10
-2.200000
20
1.400000
40
0.020000
0
CIRCLE
8
1
10
-2.200000
20
1.300000
40
0.020000
0
POLYLINE
8
4
66
1
40
0.016000
41
0.016000
0
VERTEX
8
4
10
3.900000
20
1.700000
0
VERTEX
8
4
10
6.700000
20
1.700000
0
VERTEX
8
4
10
6.700000
20
2.900000
0
VERTEX
8
4
10
3.900000
20
2.900000
0
VERTEX
8
4
10
3.900000
20
1.700000
0
SEQEND
8
4
0
POLYLINE
8
5
66
1
40
0.016000
41
0.016000
0
VERTEX
8
5
10
4.000000
20
1.850000
0
VERTEX
8
5
10
4.650000
20
1.850000
0
VERTEX
8
5
10
4.650000
20
2.800000
0
VERTEX
8
5
10
4.000000
20
2.800000
0
VERTEX
8
5
10
4.000000
20
1.850000
0
SEQEND
8
5
0
POLYLINE
8
5
66
1
40
0.016000
41
0.016000
0
VERTEX
8
5
10
4.650000
20
1.850000
0
VERTEX
8
5
10
5.300000
20
1.850000
0
VERTEX
8
5
10
5.300000
20
2.800000
0
VERTEX
8
5
10
4.650000
20
2.800000
0
VERTEX
8
5
10
4.650000
20
1.850000
0
SEQEND
8
5
0
CIRCLE
8
6
10
4.550000
20
1.950000
40
0.030000
0
CIRCLE
8
6
10
5.200000
20
1.950000
40
0.030000
0
POLYLINE
8
5
66
1
40
0.016000
41
0.016000
0
VERTEX
8
5
10
5.950000
20
1.850000
0
VERTEX
8
5
10
6.600000
20
1.850000
0
VERTEX
8
5
10
6.600000
20
2.800000
0
VERTEX
8
5
10
5.950000
20
2.800000
0
VERTEX
8
5
10
5.950000
20
1.850000
0
SEQEND
8
5
0
CIRCLE
8
6
10
6.500000
20
1.950000
40
0.030000
0
TEXT
8
0
10
4.020000
20
1.740000
40
0.080000
41
1.000000
1
ABCDEFG DP
0
TEXT
8
0
10
6.190000
20
1.740000
40
0.080000
41
1.000000
1
1234
0
POLYLINE
8
5
66
1
40
0.016000
41
0.016000
0
VERTEX
8
5
10
5.300000
20
1.850000
0
VERTEX
8
5
10
5.950000
20
1.850000
0
VERTEX
8
5
10
5.950000
20
2.800000
0
VERTEX
8
5
10
5.300000
20
2.800000
0
VERTEX
8
5
10
5.300000
20
1.850000
0
SEQEND
8
5
0
CIRCLE
8
6
10
5.850000
20
1.950000
40
0.030000
0
POLYLINE
8
2
66
1
40
0.016000
41
0.016000
0
VERTEX
8
2
10
6.200000
20
1.600000
0
VERTEX
8
2
10
6.200000
20
1.700000
0
SEQEND
8
2
0
POLYLINE
8
2
66
1
40
0.016000
41
0.016000
0
VERTEX
8
2
10
6.300000
20
1.600000
0
VERTEX
8
2
10
6.300000
20
1.700000
0
SEQEND
8
2
0
POLYLINE
8
2
66
1
40
0.016000
41
0.016000
0
VERTEX
8
2
10
6.400000
20
1.600000
0
VERTEX
8
2
10
6.400000
20
1.700000
0
SEQEND
8
2
0
POLYLINE
8
2
66
1
40
0.016000
41
0.016000
0
VERTEX
8
2
10
6.500000
20
1.600000
0
VERTEX
8
2
10
6.500000
20
1.700000
0
SEQEND
8
2
0
POLYLINE
8
2
66
1
40
0.016000
41
0.016000
0
VERTEX
8
2
10
4.000000
20
1.600000
0
VERTEX
8
2
10
4.000000
20
1.700000
0
SEQEND
8
2
0
POLYLINE
8
2
66
1
40
0.016000
41
0.016000
0
VERTEX
8
2
10
4.100000
20
1.600000
0
VERTEX
8
2
10
4.100000
20
1.700000
0
SEQEND
8
2
0
POLYLINE
8
2
66
1
40
0.016000
41
0.016000
0
VERTEX
8
2
10
4.200000
20
1.600000
0
VERTEX
8
2
10
4.200000
20
1.700000
0
SEQEND
8
2
0
POLYLINE
8
2
66
1
40
0.016000
41
0.016000
0
VERTEX
8
2
10
4.300000
20
1.600000
0
VERTEX
8
2
10
4.300000
20
1.700000
0
SEQEND
8
2
0
POLYLINE
8
2
66
1
40
0.016000
41
0.016000
0
VERTEX
8
2
10
4.400000
20
1.600000
0
VERTEX
8
2
10
4.400000
20
1.700000
0
SEQEND
8
2
0
POLYLINE
8
2
66
1
40
0.016000
41
0.016000
0
VERTEX
8
2
10
4.500000
20
1.600000
0
VERTEX
8
2
10
4.500000
20
1.700000
0
SEQEND
8
2
0
POLYLINE
8
2
66
1
40
0.016000
41
0.016000
0
VERTEX
8
2
10
4.600000
20
1.600000
0
VERTEX
8
2
10
4.600000
20
1.700000
0
SEQEND
8
2
0
POLYLINE
8
2
66
1
40
0.016000
41
0.016000
0
VERTEX
8
2
10
4.700000
20
1.600000
0
VERTEX
8
2
10
4.700000
20
1.700000
0
SEQEND
8
2
0
POLYLINE
8
2
66
1
40
0.016000
41
0.016000
0
VERTEX
8
2
10
0.800000
20
-2.200000
0
VERTEX
8
2
10
1.400000
20
-2.200000
0
VERTEX
8
2
10
1.400000
20
-0.700000
0
VERTEX
8
2
10
0.800000
20
-0.700000
0
VERTEX
8
2
10
0.800000
20
-2.200000
0
SEQEND
8
2
0
POLYLINE
8
2
66
1
40
0.016000
41
0.016000
0
VERTEX
8
2
10
0.600000
20
-0.800000
0
VERTEX
8
2
10
0.800000
20
-0.800000
0
SEQEND
8
2
0
TEXT
8
0
10
0.850000
20
-0.840000
40
0.080000
41
1.000000
1
X0
0
TEXT
8
0
10
0.620000
20
-0.790000
40
0.080000
41
1.000000
1
4
0
POLYLINE
8
2
66
1
40
0.016000
41
0.016000
0
VERTEX
8
2
10
0.600000
20
-0.900000
0
VERTEX
8
2
10
0.800000
20
-0.900000
0
SEQEND
8
2
0
TEXT
8
0
10
0.850000
20
-0.940000
40
0.080000
41
1.000000
1
X1
0
TEXT
8
0
10
0.620000
20
-0.890000
40
0.080000
41
1.000000
1
3
0
POLYLINE
8
2
66
1
40
0.016000
41
0.016000
0
VERTEX
8
2
10
0.600000
20
-1.000000
0
VERTEX
8
2
10
0.800000
20
-1.000000
0
SEQEND
8
2
0
TEXT
8
0
10
0.850000
20
-1.040000
40
0.080000
41
1.000000
1
X2
0
TEXT
8
0
10
0.620000
20
-0.990000
40
0.080000
41
1.000000
1
2
0
POLYLINE
8
2
66
1
40
0.016000
41
0.016000
0
VERTEX
8
2
10
0.600000
20
-1.100000
0
VERTEX
8
2
10
0.800000
20
-1.100000
0
SEQEND
8
2
0
TEXT
8
0
10
0.850000
20
-1.140000
40
0.080000
41
1.000000
1
X3
0
TEXT
8
0
10
0.620000
20
-1.090000
40
0.080000
41
1.000000
1
1
0
POLYLINE
8
2
66
1
40
0.016000
41
0.016000
0
VERTEX
8
2
10
0.600000
20
-1.200000
0
VERTEX
8
2
10
0.800000
20
-1.200000
0
SEQEND
8
2
0
TEXT
8
0
10
0.850000
20
-1.240000
40
0.080000
41
1.000000
1
X4
0
TEXT
8
0
10
0.540000
20
-1.190000
40
0.080000
41
1.000000
1
15
0
POLYLINE
8
2
66
1
40
0.016000
41
0.016000
0
VERTEX
8
2
10
0.600000
20
-1.300000
0
VERTEX
8
2
10
0.800000
20
-1.300000
0
SEQEND
8
2
0
TEXT
8
0
10
0.850000
20
-1.340000
40
0.080000
41
1.000000
1
X5
0
TEXT
8
0
10
0.540000
20
-1.290000
40
0.080000
41
1.000000
1
14
0
POLYLINE
8
2
66
1
40
0.016000
41
0.016000
0
VERTEX
8
2
10
0.600000
20
-1.400000
0
VERTEX
8
2
10
0.800000
20
-1.400000
0
SEQEND
8
2
0
TEXT
8
0
10
0.850000
20
-1.440000
40
0.080000
41
1.000000
1
X6
0
TEXT
8
0
10
0.540000
20
-1.390000
40
0.080000
41
1.000000
1
13
0
POLYLINE
8
2
66
1
40
0.016000
41
0.016000
0
VERTEX
8
2
10
0.600000
20
-1.500000
0
VERTEX
8
2
10
0.800000
20
-1.500000
0
SEQEND
8
2
0
TEXT
8
0
10
0.850000
20
-1.540000
40
0.080000
41
1.000000
1
X7
0
TEXT
8
0
10
0.540000
20
-1.490000
40
0.080000
41
1.000000
1
12
0
POLYLINE
8
2
66
1
40
0.016000
41
0.016000
0
VERTEX
8
2
10
0.600000
20
-1.700000
0
VERTEX
8
2
10
0.800000
20
-1.700000
0
SEQEND
8
2
0
TEXT
8
0
10
0.850000
20
-1.740000
40
0.080000
41
1.000000
1
A
0
TEXT
8
0
10
0.540000
20
-1.690000
40
0.080000
41
1.000000
1
11
0
POLYLINE
8
2
66
1
40
0.016000
41
0.016000
0
VERTEX
8
2
10
0.600000
20
-1.800000
0
VERTEX
8
2
10
0.800000
20
-1.800000
0
SEQEND
8
2
0
TEXT
8
0
10
0.850000
20
-1.840000
40
0.080000
41
1.000000
1
B
0
TEXT
8
0
10
0.540000
20
-1.790000
40
0.080000
41
1.000000
1
10
0
POLYLINE
8
2
66
1
40
0.016000
41
0.016000
0
VERTEX
8
2
10
0.600000
20
-1.900000
0
VERTEX
8
2
10
0.800000
20
-1.900000
0
SEQEND
8
2
0
TEXT
8
0
10
0.850000
20
-1.940000
40
0.080000
41
1.000000
1
C
0
TEXT
8
0
10
0.620000
20
-1.890000
40
0.080000
41
1.000000
1
9
0
CIRCLE
8
2
10
0.770000
20
-2.100000
40
0.030000
0
POLYLINE
8
2
66
1
40
0.016000
41
0.016000
0
VERTEX
8
2
10
0.600000
20
-2.100000
0
VERTEX
8
2
10
0.740000
20
-2.100000
0
SEQEND
8
2
0
TEXT
8
0
10
0.850000
20
-2.140000
40
0.080000
41
1.000000
1
E
0
TEXT
8
0
10
0.620000
20
-2.090000
40
0.080000
41
1.000000
1
7
0
POLYLINE
8
2
66
1
40
0.016000
41
0.016000
0
VERTEX
8
2
10
1.600000
20
-0.800000
0
VERTEX
8
2
10
1.400000
20
-0.800000
0
SEQEND
8
2
0
TEXT
8
0
10
1.270000
20
-0.840000
40
0.080000
41
1.000000
1
Y
0
TEXT
8
0
10
1.500000
20
-0.790000
40
0.080000
41
1.000000
1
5
0
POLYLINE
8
2
66
1
40
0.016000
41
0.016000
0
VERTEX
8
2
10
1.600000
20
-1.000000
0
VERTEX
8
2
10
1.400000
20
-1.000000
0
SEQEND
8
2
0
TEXT
8
0
10
1.270000
20
-1.040000
40
0.080000
41
1.000000
1
Y
0
TEXT
8
0
10
1.500000
20
-0.990000
40
0.080000
41
1.000000
1
6
0
TEXT
8
0
10
0.792000
20
-0.677000
40
0.120000
41
0.666667
1
U6
0
TEXT
8
0
10
0.792000
20
-2.298000
40
0.080000
41
1.000000
1
74HC151
0
POLYLINE
8
2
66
1
40
0.016000
41
0.016000
0
VERTEX
8
2
10
0.700000
20
-4.100000
0
VERTEX
8
2
10
1.300000
20
-4.100000
0
VERTEX
8
2
10
1.300000
20
-2.600000
0
VERTEX
8
2
10
0.700000
20
-2.600000
0
VERTEX
8
2
10
0.700000
20
-4.100000
0
SEQEND
8
2
0
POLYLINE
8
2
66
1
40
0.016000
41
0.016000
0
VERTEX
8
2
10
0.500000
20
-2.700000
0
VERTEX
8
2
10
0.700000
20
-2.700000
0
SEQEND
8
2
0
TEXT
8
0
10
0.750000
20
-2.740000
40
0.080000
41
1.000000
1
X0
0
TEXT
8
0
10
0.520000
20
-2.690000
40
0.080000
41
1.000000
1
4
0
POLYLINE
8
2
66
1
40
0.016000
41
0.016000
0
VERTEX
8
2
10
0.500000
20
-2.800000
0
VERTEX
8
2
10
0.700000
20
-2.800000
0
SEQEND
8
2
0
TEXT
8
0
10
0.750000
20
-2.840000
40
0.080000
41
1.000000
1
X1
0
TEXT
8
0
10
0.520000
20
-2.790000
40
0.080000
41
1.000000
1
3
0
POLYLINE
8
2
66
1
40
0.016000
41
0.016000
0
VERTEX
8
2
10
0.500000
20
-2.900000
0
VERTEX
8
2
10
0.700000
20
-2.900000
0
SEQEND
8
2
0
TEXT
8
0
10
0.750000
20
-2.940000
40
0.080000
41
1.000000
1
X2
0
TEXT
8
0
10
0.520000
20
-2.890000
40
0.080000
41
1.000000
1
2
0
POLYLINE
8
2
66
1
40
0.016000
41
0.016000
0
VERTEX
8
2
10
0.500000
20
-3.000000
0
VERTEX
8
2
10
0.700000
20
-3.000000
0
SEQEND
8
2
0
TEXT
8
0
10
0.750000
20
-3.040000
40
0.080000
41
1.000000
1
X3
0
TEXT
8
0
10
0.520000
20
-2.990000
40
0.080000
41
1.000000
1
1
0
POLYLINE
8
2
66
1
40
0.016000
41
0.016000
0
VERTEX
8
2
10
0.500000
20
-3.100000
0
VERTEX
8
2
10
0.700000
20
-3.100000
0
SEQEND
8
2
0
TEXT
8
0
10
0.750000
20
-3.140000
40
0.080000
41
1.000000
1
X4
0
TEXT
8
0
10
0.440000
20
-3.090000
40
0.080000
41
1.000000
1
15
0
POLYLINE
8
2
66
1
40
0.016000
41
0.016000
0
VERTEX
8
2
10
0.500000
20
-3.200000
0
VERTEX
8
2
10
0.700000
20
-3.200000
0
SEQEND
8
2
0
TEXT
8
0
10
0.750000
20
-3.240000
40
0.080000
41
1.000000
1
X5
0
TEXT
8
0
10
0.440000
20
-3.190000
40
0.080000
41
1.000000
1
14
0
POLYLINE
8
2
66
1
40
0.016000
41
0.016000
0
VERTEX
8
2
10
0.500000
20
-3.300000
0
VERTEX
8
2
10
0.700000
20
-3.300000
0
SEQEND
8
2
0
TEXT
8
0
10
0.750000
20
-3.340000
40
0.080000
41
1.000000
1
X6
0
TEXT
8
0
10
0.440000
20
-3.290000
40
0.080000
41
1.000000
1
13
0
POLYLINE
8
2
66
1
40
0.016000
41
0.016000
0
VERTEX
8
2
10
0.500000
20
-3.400000
0
VERTEX
8
2
10
0.700000
20
-3.400000
0
SEQEND
8
2
0
TEXT
8
0
10
0.750000
20
-3.440000
40
0.080000
41
1.000000
1
X7
0
TEXT
8
0
10
0.440000
20
-3.390000
40
0.080000
41
1.000000
1
12
0
POLYLINE
8
2
66
1
40
0.016000
41
0.016000
0
VERTEX
8
2
10
0.500000
20
-3.600000
0
VERTEX
8
2
10
0.700000
20
-3.600000
0
SEQEND
8
2
0
TEXT
8
0
10
0.750000
20
-3.640000
40
0.080000
41
1.000000
1
A
0
TEXT
8
0
10
0.440000
20
-3.590000
40
0.080000
41
1.000000
1
11
0
POLYLINE
8
2
66
1
40
0.016000
41
0.016000
0
VERTEX
8
2
10
0.500000
20
-3.700000
0
VERTEX
8
2
10
0.700000
20
-3.700000
0
SEQEND
8
2
0
TEXT
8
0
10
0.750000
20
-3.740000
40
0.080000
41
1.000000
1
B
0
TEXT
8
0
10
0.440000
20
-3.690000
40
0.080000
41
1.000000
1
10
0
POLYLINE
8
2
66
1
40
0.016000
41
0.016000
0
VERTEX
8
2
10
0.500000
20
-3.800000
0
VERTEX
8
2
10
0.700000
20
-3.800000
0
SEQEND
8
2
0
TEXT
8
0
10
0.750000
20
-3.840000
40
0.080000
41
1.000000
1
C
0
TEXT
8
0
10
0.520000
20
-3.790000
40
0.080000
41
1.000000
1
9
0
CIRCLE
8
2
10
0.670000
20
-4.000000
40
0.030000
0
POLYLINE
8
2
66
1
40
0.016000
41
0.016000
0
VERTEX
8
2
10
0.500000
20
-4.000000
0
VERTEX
8
2
10
0.640000
20
-4.000000
0
SEQEND
8
2
0
TEXT
8
0
10
0.750000
20
-4.040000
40
0.080000
41
1.000000
1
E
0
TEXT
8
0
10
0.520000
20
-3.990000
40
0.080000
41
1.000000
1
7
0
POLYLINE
8
2
66
1
40
0.016000
41
0.016000
0
VERTEX
8
2
10
1.500000
20
-2.700000
0
VERTEX
8
2
10
1.300000
20
-2.700000
0
SEQEND
8
2
0
TEXT
8
0
10
1.170000
20
-2.740000
40
0.080000
41
1.000000
1
Y
0
TEXT
8
0
10
1.400000
20
-2.690000
40
0.080000
41
1.000000
1
5
0
POLYLINE
8
2
66
1
40
0.016000
41
0.016000
0
VERTEX
8
2
10
1.500000
20
-2.900000
0
VERTEX
8
2
10
1.300000
20
-2.900000
0
SEQEND
8
2
0
TEXT
8
0
10
1.170000
20
-2.940000
40
0.080000
41
1.000000
1
Y
0
TEXT
8
0
10
1.400000
20
-2.890000
40
0.080000
41
1.000000
1
6
0
TEXT
8
0
10
0.692000
20
-2.577000
40
0.120000
41
0.666667
1
U8
0
TEXT
8
0
10
0.692000
20
-4.198000
40
0.080000
41
1.000000
1
74HC151
0
POLYLINE
8
2
66
1
40
0.016000
41
0.016000
0
VERTEX
8
2
10
0.700000
20
-0.500000
0
VERTEX
8
2
10
1.300000
20
-0.500000
0
VERTEX
8
2
10
1.300000
20
1.000000
0
VERTEX
8
2
10
0.700000
20
1.000000
0
VERTEX
8
2
10
0.700000
20
-0.500000
0
SEQEND
8
2
0
POLYLINE
8
2
66
1
40
0.016000
41
0.016000
0
VERTEX
8
2
10
0.500000
20
0.900000
0
VERTEX
8
2
10
0.700000
20
0.900000
0
SEQEND
8
2
0
TEXT
8
0
10
0.750000
20
0.860000
40
0.080000
41
1.000000
1
X0
0
TEXT
8
0
10
0.520000
20
0.910000
40
0.080000
41
1.000000
1
4
0
POLYLINE
8
2
66
1
40
0.016000
41
0.016000
0
VERTEX
8
2
10
0.500000
20
0.800000
0
VERTEX
8
2
10
0.700000
20
0.800000
0
SEQEND
8
2
0
TEXT
8
0
10
0.750000
20
0.760000
40
0.080000
41
1.000000
1
X1
0
TEXT
8
0
10
0.520000
20
0.810000
40
0.080000
41
1.000000
1
3
0
POLYLINE
8
2
66
1
40
0.016000
41
0.016000
0
VERTEX
8
2
10
0.500000
20
0.700000
0
VERTEX
8
2
10
0.700000
20
0.700000
0
SEQEND
8
2
0
TEXT
8
0
10
0.750000
20
0.660000
40
0.080000
41
1.000000
1
X2
0
TEXT
8
0
10
0.520000
20
0.710000
40
0.080000
41
1.000000
1
2
0
POLYLINE
8
2
66
1
40
0.016000
41
0.016000
0
VERTEX
8
2
10
0.500000
20
0.600000
0
VERTEX
8
2
10
0.700000
20
0.600000
0
SEQEND
8
2
0
TEXT
8
0
10
0.750000
20
0.560000
40
0.080000
41
1.000000
1
X3
0
TEXT
8
0
10
0.520000
20
0.610000
40
0.080000
41
1.000000
1
1
0
POLYLINE
8
2
66
1
40
0.016000
41
0.016000
0
VERTEX
8
2
10
0.500000
20
0.500000
0
VERTEX
8
2
10
0.700000
20
0.500000
0
SEQEND
8
2
0
TEXT
8
0
10
0.750000
20
0.460000
40
0.080000
41
1.000000
1
X4
0
TEXT
8
0
10
0.440000
20
0.510000
40
0.080000
41
1.000000
1
15
0
POLYLINE
8
2
66
1
40
0.016000
41
0.016000
0
VERTEX
8
2
10
0.500000
20
0.400000
0
VERTEX
8
2
10
0.700000
20
0.400000
0
SEQEND
8
2
0
TEXT
8
0
10
0.750000
20
0.360000
40
0.080000
41
1.000000
1
X5
0
TEXT
8
0
10
0.440000
20
0.410000
40
0.080000
41
1.000000
1
14
0
POLYLINE
8
2
66
1
40
0.016000
41
0.016000
0
VERTEX
8
2
10
0.500000
20
0.300000
0
VERTEX
8
2
10
0.700000
20
0.300000
0
SEQEND
8
2
0
TEXT
8
0
10
0.750000
20
0.260000
40
0.080000
41
1.000000
1
X6
0
TEXT
8
0
10
0.440000
20
0.310000
40
0.080000
41
1.000000
1
13
0
POLYLINE
8
2
66
1
40
0.016000
41
0.016000
0
VERTEX
8
2
10
0.500000
20
0.200000
0
VERTEX
8
2
10
0.700000
20
0.200000
0
SEQEND
8
2
0
TEXT
8
0
10
0.750000
20
0.160000
40
0.080000
41
1.000000
1
X7
0
TEXT
8
0
10
0.440000
20
0.210000
40
0.080000
41
1.000000
1
12
0
POLYLINE
8
2
66
1
40
0.016000
41
0.016000
0
VERTEX
8
2
10
0.500000
20
0.000000
0
VERTEX
8
2
10
0.700000
20
0.000000
0
SEQEND
8
2
0
TEXT
8
0
10
0.750000
20
-0.040000
40
0.080000
41
1.000000
1
A
0
TEXT
8
0
10
0.440000
20
0.010000
40
0.080000
41
1.000000
1
11
0
POLYLINE
8
2
66
1
40
0.016000
41
0.016000
0
VERTEX
8
2
10
0.500000
20
-0.100000
0
VERTEX
8
2
10
0.700000
20
-0.100000
0
SEQEND
8
2
0
TEXT
8
0
10
0.750000
20
-0.140000
40
0.080000
41
1.000000
1
B
0
TEXT
8
0
10
0.440000
20
-0.090000
40
0.080000
41
1.000000
1
10
0
POLYLINE
8
2
66
1
40
0.016000
41
0.016000
0
VERTEX
8
2
10
0.500000
20
-0.200000
0
VERTEX
8
2
10
0.700000
20
-0.200000
0
SEQEND
8
2
0
TEXT
8
0
10
0.750000
20
-0.240000
40
0.080000
41
1.000000
1
C
0
TEXT
8
0
10
0.520000
20
-0.190000
40
0.080000
41
1.000000
1
9
0
CIRCLE
8
2
10
0.670000
20
-0.400000
40
0.030000
0
POLYLINE
8
2
66
1
40
0.016000
41
0.016000
0
VERTEX
8
2
10
0.500000
20
-0.400000
0
VERTEX
8
2
10
0.640000
20
-0.400000
0
SEQEND
8
2
0
TEXT
8
0
10
0.750000
20
-0.440000
40
0.080000
41
1.000000
1
E
0
TEXT
8
0
10
0.520000
20
-0.390000
40
0.080000
41
1.000000
1
7
0
POLYLINE
8
2
66
1
40
0.016000
41
0.016000
0
VERTEX
8
2
10
1.500000
20
0.900000
0
VERTEX
8
2
10
1.300000
20
0.900000
0
SEQEND
8
2
0
TEXT
8
0
10
1.170000
20
0.860000
40
0.080000
41
1.000000
1
Y
0
TEXT
8
0
10
1.400000
20
0.910000
40
0.080000
41
1.000000
1
5
0
POLYLINE
8
2
66
1
40
0.016000
41
0.016000
0
VERTEX
8
2
10
1.500000
20
0.700000
0
VERTEX
8
2
10
1.300000
20
0.700000
0
SEQEND
8
2
0
TEXT
8
0
10
1.170000
20
0.660000
40
0.080000
41
1.000000
1
Y
0
TEXT
8
0
10
1.400000
20
0.710000
40
0.080000
41
1.000000
1
6
0
TEXT
8
0
10
0.692000
20
1.023000
40
0.120000
41
0.666667
1
U7
0
TEXT
8
0
10
0.692000
20
-0.598000
40
0.080000
41
1.000000
1
74HC151
0
POLYLINE
8
2
66
1
40
0.016000
41
0.016000
0
VERTEX
8
2
10
0.700000
20
1.400000
0
VERTEX
8
2
10
1.300000
20
1.400000
0
VERTEX
8
2
10
1.300000
20
2.900000
0
VERTEX
8
2
10
0.700000
20
2.900000
0
VERTEX
8
2
10
0.700000
20
1.400000
0
SEQEND
8
2
0
POLYLINE
8
2
66
1
40
0.016000
41
0.016000
0
VERTEX
8
2
10
0.500000
20
2.800000
0
VERTEX
8
2
10
0.700000
20
2.800000
0
SEQEND
8
2
0
TEXT
8
0
10
0.750000
20
2.760000
40
0.080000
41
1.000000
1
X0
0
TEXT
8
0
10
0.520000
20
2.810000
40
0.080000
41
1.000000
1
4
0
POLYLINE
8
2
66
1
40
0.016000
41
0.016000
0
VERTEX
8
2
10
0.500000
20
2.700000
0
VERTEX
8
2
10
0.700000
20
2.700000
0
SEQEND
8
2
0
TEXT
8
0
10
0.750000
20
2.660000
40
0.080000
41
1.000000
1
X1
0
TEXT
8
0
10
0.520000
20
2.710000
40
0.080000
41
1.000000
1
3
0
POLYLINE
8
2
66
1
40
0.016000
41
0.016000
0
VERTEX
8
2
10
0.500000
20
2.600000
0
VERTEX
8
2
10
0.700000
20
2.600000
0
SEQEND
8
2
0
TEXT
8
0
10
0.750000
20
2.560000
40
0.080000
41
1.000000
1
X2
0
TEXT
8
0
10
0.520000
20
2.610000
40
0.080000
41
1.000000
1
2
0
POLYLINE
8
2
66
1
40
0.016000
41
0.016000
0
VERTEX
8
2
10
0.500000
20
2.500000
0
VERTEX
8
2
10
0.700000
20
2.500000
0
SEQEND
8
2
0
TEXT
8
0
10
0.750000
20
2.460000
40
0.080000
41
1.000000
1
X3
0
TEXT
8
0
10
0.520000
20
2.510000
40
0.080000
41
1.000000
1
1
0
POLYLINE
8
2
66
1
40
0.016000
41
0.016000
0
VERTEX
8
2
10
0.500000
20
2.400000
0
VERTEX
8
2
10
0.700000
20
2.400000
0
SEQEND
8
2
0
TEXT
8
0
10
0.750000
20
2.360000
40
0.080000
41
1.000000
1
X4
0
TEXT
8
0
10
0.440000
20
2.410000
40
0.080000
41
1.000000
1
15
0
POLYLINE
8
2
66
1
40
0.016000
41
0.016000
0
VERTEX
8
2
10
0.500000
20
2.300000
0
VERTEX
8
2
10
0.700000
20
2.300000
0
SEQEND
8
2
0
TEXT
8
0
10
0.750000
20
2.260000
40
0.080000
41
1.000000
1
X5
0
TEXT
8
0
10
0.440000
20
2.310000
40
0.080000
41
1.000000
1
14
0
POLYLINE
8
2
66
1
40
0.016000
41
0.016000
0
VERTEX
8
2
10
0.500000
20
2.200000
0
VERTEX
8
2
10
0.700000
20
2.200000
0
SEQEND
8
2
0
TEXT
8
0
10
0.750000
20
2.160000
40
0.080000
41
1.000000
1
X6
0
TEXT
8
0
10
0.440000
20
2.210000
40
0.080000
41
1.000000
1
13
0
POLYLINE
8
2
66
1
40
0.016000
41
0.016000
0
VERTEX
8
2
10
0.500000
20
2.100000
0
VERTEX
8
2
10
0.700000
20
2.100000
0
SEQEND
8
2
0
TEXT
8
0
10
0.750000
20
2.060000
40
0.080000
41
1.000000
1
X7
0
TEXT
8
0
10
0.440000
20
2.110000
40
0.080000
41
1.000000
1
12
0
POLYLINE
8
2
66
1
40
0.016000
41
0.016000
0
VERTEX
8
2
10
0.500000
20
1.900000
0
VERTEX
8
2
10
0.700000
20
1.900000
0
SEQEND
8
2
0
TEXT
8
0
10
0.750000
20
1.860000
40
0.080000
41
1.000000
1
A
0
TEXT
8
0
10
0.440000
20
1.910000
40
0.080000
41
1.000000
1
11
0
POLYLINE
8
2
66
1
40
0.016000
41
0.016000
0
VERTEX
8
2
10
0.500000
20
1.800000
0
VERTEX
8
2
10
0.700000
20
1.800000
0
SEQEND
8
2
0
TEXT
8
0
10
0.750000
20
1.760000
40
0.080000
41
1.000000
1
B
0
TEXT
8
0
10
0.440000
20
1.810000
40
0.080000
41
1.000000
1
10
0
POLYLINE
8
2
66
1
40
0.016000
41
0.016000
0
VERTEX
8
2
10
0.500000
20
1.700000
0
VERTEX
8
2
10
0.700000
20
1.700000
0
SEQEND
8
2
0
TEXT
8
0
10
0.750000
20
1.660000
40
0.080000
41
1.000000
1
C
0
TEXT
8
0
10
0.520000
20
1.710000
40
0.080000
41
1.000000
1
9
0
CIRCLE
8
2
10
0.670000
20
1.500000
40
0.030000
0
POLYLINE
8
2
66
1
40
0.016000
41
0.016000
0
VERTEX
8
2
10
0.500000
20
1.500000
0
VERTEX
8
2
10
0.640000
20
1.500000
0
SEQEND
8
2
0
TEXT
8
0
10
0.750000
20
1.460000
40
0.080000
41
1.000000
1
E
0
TEXT
8
0
10
0.520000
20
1.510000
40
0.080000
41
1.000000
1
7
0
POLYLINE
8
2
66
1
40
0.016000
41
0.016000
0
VERTEX
8
2
10
1.500000
20
2.800000
0
VERTEX
8
2
10
1.300000
20
2.800000
0
SEQEND
8
2
0
TEXT
8
0
10
1.170000
20
2.760000
40
0.080000
41
1.000000
1
Y
0
TEXT
8
0
10
1.400000
20
2.810000
40
0.080000
41
1.000000
1
5
0
POLYLINE
8
2
66
1
40
0.016000
41
0.016000
0
VERTEX
8
2
10
1.500000
20
2.600000
0
VERTEX
8
2
10
1.300000
20
2.600000
0
SEQEND
8
2
0
TEXT
8
0
10
1.170000
20
2.560000
40
0.080000
41
1.000000
1
Y
0
TEXT
8
0
10
1.400000
20
2.610000
40
0.080000
41
1.000000
1
6
0
TEXT
8
0
10
0.692000
20
2.923000
40
0.120000
41
0.666667
1
U9
0
TEXT
8
0
10
0.692000
20
1.302000
40
0.080000
41
1.000000
1
74HC151
0
CIRCLE
8
1
10
0.100000
20
2.800000
40
0.020000
0
POLYLINE
8
2
66
1
40
0.016000
41
0.016000
0
VERTEX
8
2
10
3.960000
20
1.100000
0
VERTEX
8
2
10
4.040000
20
1.100000
0
VERTEX
8
2
10
4.040000
20
1.400000
0
VERTEX
8
2
10
3.960000
20
1.400000
0
VERTEX
8
2
10
3.960000
20
1.100000
0
SEQEND
8
2
0
POLYLINE
8
2
66
1
40
0.016000
41
0.016000
0
VERTEX
8
2
10
4.000000
20
1.000000
0
VERTEX
8
2
10
4.000000
20
1.100000
0
SEQEND
8
2
0
POLYLINE
8
2
66
1
40
0.016000
41
0.016000
0
VERTEX
8
2
10
4.000000
20
1.500000
0
VERTEX
8
2
10
4.000000
20
1.400000
0
SEQEND
8
2
0
POLYLINE
8
2
66
1
40
0.016000
41
0.016000
0
VERTEX
8
2
10
4.060000
20
1.100000
0
VERTEX
8
2
10
4.140000
20
1.100000
0
VERTEX
8
2
10
4.140000
20
1.400000
0
VERTEX
8
2
10
4.060000
20
1.400000
0
VERTEX
8
2
10
4.060000
20
1.100000
0
SEQEND
8
2
0
POLYLINE
8
2
66
1
40
0.016000
41
0.016000
0
VERTEX
8
2
10
4.100000
20
1.000000
0
VERTEX
8
2
10
4.100000
20
1.100000
0
SEQEND
8
2
0
POLYLINE
8
2
66
1
40
0.016000
41
0.016000
0
VERTEX
8
2
10
4.100000
20
1.500000
0
VERTEX
8
2
10
4.100000
20
1.400000
0
SEQEND
8
2
0
POLYLINE
8
2
66
1
40
0.016000
41
0.016000
0
VERTEX
8
2
10
4.160000
20
1.100000
0
VERTEX
8
2
10
4.240000
20
1.100000
0
VERTEX
8
2
10
4.240000
20
1.400000
0
VERTEX
8
2
10
4.160000
20
1.400000
0
VERTEX
8
2
10
4.160000
20
1.100000
0
SEQEND
8
2
0
POLYLINE
8
2
66
1
40
0.016000
41
0.016000
0
VERTEX
8
2
10
4.200000
20
1.000000
0
VERTEX
8
2
10
4.200000
20
1.100000
0
SEQEND
8
2
0
POLYLINE
8
2
66
1
40
0.016000
41
0.016000
0
VERTEX
8
2
10
4.200000
20
1.500000
0
VERTEX
8
2
10
4.200000
20
1.400000
0
SEQEND
8
2
0
POLYLINE
8
2
66
1
40
0.016000
41
0.016000
0
VERTEX
8
2
10
4.260000
20
1.100000
0
VERTEX
8
2
10
4.340000
20
1.100000
0
VERTEX
8
2
10
4.340000
20
1.400000
0
VERTEX
8
2
10
4.260000
20
1.400000
0
VERTEX
8
2
10
4.260000
20
1.100000
0
SEQEND
8
2
0
POLYLINE
8
2
66
1
40
0.016000
41
0.016000
0
VERTEX
8
2
10
4.300000
20
1.000000
0
VERTEX
8
2
10
4.300000
20
1.100000
0
SEQEND
8
2
0
POLYLINE
8
2
66
1
40
0.016000
41
0.016000
0
VERTEX
8
2
10
4.300000
20
1.500000
0
VERTEX
8
2
10
4.300000
20
1.400000
0
SEQEND
8
2
0
POLYLINE
8
2
66
1
40
0.016000
41
0.016000
0
VERTEX
8
2
10
4.360000
20
1.100000
0
VERTEX
8
2
10
4.440000
20
1.100000
0
VERTEX
8
2
10
4.440000
20
1.400000
0
VERTEX
8
2
10
4.360000
20
1.400000
0
VERTEX
8
2
10
4.360000
20
1.100000
0
SEQEND
8
2
0
POLYLINE
8
2
66
1
40
0.016000
41
0.016000
0
VERTEX
8
2
10
4.400000
20
1.000000
0
VERTEX
8
2
10
4.400000
20
1.100000
0
SEQEND
8
2
0
POLYLINE
8
2
66
1
40
0.016000
41
0.016000
0
VERTEX
8
2
10
4.400000
20
1.500000
0
VERTEX
8
2
10
4.400000
20
1.400000
0
SEQEND
8
2
0
POLYLINE
8
2
66
1
40
0.016000
41
0.016000
0
VERTEX
8
2
10
4.460000
20
1.100000
0
VERTEX
8
2
10
4.540000
20
1.100000
0
VERTEX
8
2
10
4.540000
20
1.400000
0
VERTEX
8
2
10
4.460000
20
1.400000
0
VERTEX
8
2
10
4.460000
20
1.100000
0
SEQEND
8
2
0
POLYLINE
8
2
66
1
40
0.016000
41
0.016000
0
VERTEX
8
2
10
4.500000
20
1.000000
0
VERTEX
8
2
10
4.500000
20
1.100000
0
SEQEND
8
2
0
POLYLINE
8
2
66
1
40
0.016000
41
0.016000
0
VERTEX
8
2
10
4.500000
20
1.500000
0
VERTEX
8
2
10
4.500000
20
1.400000
0
SEQEND
8
2
0
POLYLINE
8
2
66
1
40
0.016000
41
0.016000
0
VERTEX
8
2
10
4.560000
20
1.100000
0
VERTEX
8
2
10
4.640000
20
1.100000
0
VERTEX
8
2
10
4.640000
20
1.400000
0
VERTEX
8
2
10
4.560000
20
1.400000
0
VERTEX
8
2
10
4.560000
20
1.100000
0
SEQEND
8
2
0
POLYLINE
8
2
66
1
40
0.016000
41
0.016000
0
VERTEX
8
2
10
4.600000
20
1.000000
0
VERTEX
8
2
10
4.600000
20
1.100000
0
SEQEND
8
2
0
POLYLINE
8
2
66
1
40
0.016000
41
0.016000
0
VERTEX
8
2
10
4.600000
20
1.500000
0
VERTEX
8
2
10
4.600000
20
1.400000
0
SEQEND
8
2
0
CIRCLE
8
1
10
0.100000
20
2.700000
40
0.020000
0
CIRCLE
8
1
10
0.100000
20
2.600000
40
0.020000
0
CIRCLE
8
1
10
0.100000
20
2.500000
40
0.020000
0
CIRCLE
8
1
10
0.100000
20
0.900000
40
0.020000
0
CIRCLE
8
1
10
0.100000
20
0.800000
40
0.020000
0
CIRCLE
8
1
10
0.100000
20
0.700000
40
0.020000
0
CIRCLE
8
1
10
0.100000
20
0.600000
40
0.020000
0
CIRCLE
8
1
10
0.300000
20
-0.800000
40
0.020000
0
CIRCLE
8
1
10
0.300000
20
-0.900000
40
0.020000
0
CIRCLE
8
1
10
0.300000
20
-1.000000
40
0.020000
0
CIRCLE
8
1
10
0.300000
20
-1.100000
40
0.020000
0
CIRCLE
8
1
10
0.200000
20
-2.700000
40
0.020000
0
CIRCLE
8
1
10
0.200000
20
-2.800000
40
0.020000
0
CIRCLE
8
1
10
0.200000
20
-2.900000
40
0.020000
0
CIRCLE
8
1
10
0.200000
20
-3.000000
40
0.020000
0
CIRCLE
8
1
10
1.700000
20
2.800000
40
0.020000
0
CIRCLE
8
1
10
1.700000
20
0.900000
40
0.020000
0
CIRCLE
8
1
10
1.800000
20
-0.800000
40
0.020000
0
CIRCLE
8
1
10
1.700000
20
-2.700000
40
0.020000
0
CIRCLE
8
1
10
0.300000
20
1.900000
40
0.020000
0
CIRCLE
8
1
10
0.300000
20
1.800000
40
0.020000
0
CIRCLE
8
1
10
0.300000
20
1.700000
40
0.020000
0
CIRCLE
8
1
10
0.300000
20
0.000000
40
0.020000
0
CIRCLE
8
1
10
0.300000
20
-0.100000
40
0.020000
0
CIRCLE
8
1
10
0.300000
20
-0.200000
40
0.020000
0
CIRCLE
8
1
10
0.400000
20
-1.700000
40
0.020000
0
CIRCLE
8
1
10
0.400000
20
-1.800000
40
0.020000
0
CIRCLE
8
1
10
0.400000
20
-1.900000
40
0.020000
0
CIRCLE
8
1
10
0.300000
20
-3.600000
40
0.020000
0
CIRCLE
8
1
10
0.300000
20
-3.700000
40
0.020000
0
CIRCLE
8
1
10
0.300000
20
-3.800000
40
0.020000
0
POLYLINE
8
1
66
1
40
0.016000
41
0.016000
0
VERTEX
8
1
10
0.300000
20
-4.100000
0
VERTEX
8
1
10
0.300000
20
-4.200000
0
SEQEND
8
1
0
POLYLINE
8
1
66
1
40
0.016000
41
0.016000
0
VERTEX
8
1
10
0.200000
20
-4.200000
0
VERTEX
8
1
10
0.400000
20
-4.200000
0
SEQEND
8
1
0
POLYLINE
8
1
66
1
40
0.016000
41
0.016000
0
VERTEX
8
1
10
0.250000
20
-4.250000
0
VERTEX
8
1
10
0.350000
20
-4.250000
0
SEQEND
8
1
0
POLYLINE
8
1
66
1
40
0.016000
41
0.016000
0
VERTEX
8
1
10
0.290000
20
-4.300000
0
VERTEX
8
1
10
0.310000
20
-4.300000
0
SEQEND
8
1
0
POLYLINE
8
1
66
1
40
0.016000
41
0.016000
0
VERTEX
8
1
10
0.300000
20
-2.100000
0
VERTEX
8
1
10
0.300000
20
-2.200000
0
SEQEND
8
1
0
POLYLINE
8
1
66
1
40
0.016000
41
0.016000
0
VERTEX
8
1
10
0.200000
20
-2.200000
0
VERTEX
8
1
10
0.400000
20
-2.200000
0
SEQEND
8
1
0
POLYLINE
8
1
66
1
40
0.016000
41
0.016000
0
VERTEX
8
1
10
0.250000
20
-2.250000
0
VERTEX
8
1
10
0.350000
20
-2.250000
0
SEQEND
8
1
0
POLYLINE
8
1
66
1
40
0.016000
41
0.016000
0
VERTEX
8
1
10
0.290000
20
-2.300000
0
VERTEX
8
1
10
0.310000
20
-2.300000
0
SEQEND
8
1
0
POLYLINE
8
1
66
1
40
0.016000
41
0.016000
0
VERTEX
8
1
10
0.400000
20
-0.400000
0
VERTEX
8
1
10
0.400000
20
-0.500000
0
SEQEND
8
1
0
POLYLINE
8
1
66
1
40
0.016000
41
0.016000
0
VERTEX
8
1
10
0.300000
20
-0.500000
0
VERTEX
8
1
10
0.500000
20
-0.500000
0
SEQEND
8
1
0
POLYLINE
8
1
66
1
40
0.016000
41
0.016000
0
VERTEX
8
1
10
0.350000
20
-0.550000
0
VERTEX
8
1
10
0.450000
20
-0.550000
0
SEQEND
8
1
0
POLYLINE
8
1
66
1
40
0.016000
41
0.016000
0
VERTEX
8
1
10
0.390000
20
-0.600000
0
VERTEX
8
1
10
0.410000
20
-0.600000
0
SEQEND
8
1
0
POLYLINE
8
1
66
1
40
0.016000
41
0.016000
0
VERTEX
8
1
10
0.300000
20
1.500000
0
VERTEX
8
1
10
0.300000
20
1.400000
0
SEQEND
8
1
0
POLYLINE
8
1
66
1
40
0.016000
41
0.016000
0
VERTEX
8
1
10
0.200000
20
1.400000
0
VERTEX
8
1
10
0.400000
20
1.400000
0
SEQEND
8
1
0
POLYLINE
8
1
66
1
40
0.016000
41
0.016000
0
VERTEX
8
1
10
0.250000
20
1.350000
0
VERTEX
8
1
10
0.350000
20
1.350000
0
SEQEND
8
1
0
POLYLINE
8
1
66
1
40
0.016000
41
0.016000
0
VERTEX
8
1
10
0.290000
20
1.300000
0
VERTEX
8
1
10
0.310000
20
1.300000
0
SEQEND
8
1
0
POLYLINE
8
1
66
1
40
0.016000
41
0.016000
0
VERTEX
8
1
10
2.400000
20
0.000000
0
VERTEX
8
1
10
2.400000
20
-0.100000
0
SEQEND
8
1
0
POLYLINE
8
1
66
1
40
0.016000
41
0.016000
0
VERTEX
8
1
10
2.300000
20
-0.100000
0
VERTEX
8
1
10
2.500000
20
-0.100000
0
SEQEND
8
1
0
POLYLINE
8
1
66
1
40
0.016000
41
0.016000
0
VERTEX
8
1
10
2.350000
20
-0.150000
0
VERTEX
8
1
10
2.450000
20
-0.150000
0
SEQEND
8
1
0
POLYLINE
8
1
66
1
40
0.016000
41
0.016000
0
VERTEX
8
1
10
2.390000
20
-0.200000
0
VERTEX
8
1
10
2.410000
20
-0.200000
0
SEQEND
8
1
0
POLYLINE
8
1
66
1
40
0.016000
41
0.016000
0
VERTEX
8
1
10
2.400000
20
-2.500000
0
VERTEX
8
1
10
2.400000
20
-2.600000
0
SEQEND
8
1
0
POLYLINE
8
1
66
1
40
0.016000
41
0.016000
0
VERTEX
8
1
10
2.300000
20
-2.600000
0
VERTEX
8
1
10
2.500000
20
-2.600000
0
SEQEND
8
1
0
POLYLINE
8
1
66
1
40
0.016000
41
0.016000
0
VERTEX
8
1
10
2.350000
20
-2.650000
0
VERTEX
8
1
10
2.450000
20
-2.650000
0
SEQEND
8
1
0
POLYLINE
8
1
66
1
40
0.016000
41
0.016000
0
VERTEX
8
1
10
2.390000
20
-2.700000
0
VERTEX
8
1
10
2.410000
20
-2.700000
0
SEQEND
8
1
0
POLYLINE
8
1
66
1
40
0.016000
41
0.016000
0
VERTEX
8
1
10
4.000000
20
-2.300000
0
VERTEX
8
1
10
4.000000
20
-2.400000
0
SEQEND
8
1
0
POLYLINE
8
1
66
1
40
0.016000
41
0.016000
0
VERTEX
8
1
10
3.900000
20
-2.400000
0
VERTEX
8
1
10
4.100000
20
-2.400000
0
SEQEND
8
1
0
POLYLINE
8
1
66
1
40
0.016000
41
0.016000
0
VERTEX
8
1
10
3.950000
20
-2.450000
0
VERTEX
8
1
10
4.050000
20
-2.450000
0
SEQEND
8
1
0
POLYLINE
8
1
66
1
40
0.016000
41
0.016000
0
VERTEX
8
1
10
3.990000
20
-2.500000
0
VERTEX
8
1
10
4.010000
20
-2.500000
0
SEQEND
8
1
0
POLYLINE
8
1
66
1
40
0.016000
41
0.016000
0
VERTEX
8
1
10
2.250000
20
0.500000
0
VERTEX
8
1
10
2.300000
20
0.600000
0
VERTEX
8
1
10
2.350000
20
0.500000
0
VERTEX
8
1
10
2.250000
20
0.500000
0
SEQEND
8
1
0
POLYLINE
8
1
66
1
40
0.016000
41
0.016000
0
VERTEX
8
1
10
2.300000
20
0.400000
0
VERTEX
8
1
10
2.300000
20
0.600000
0
SEQEND
8
1
0
POLYLINE
8
1
66
1
40
0.016000
41
0.016000
0
VERTEX
8
1
10
3.650000
20
-2.000000
0
VERTEX
8
1
10
3.700000
20
-1.900000
0
VERTEX
8
1
10
3.750000
20
-2.000000
0
VERTEX
8
1
10
3.650000
20
-2.000000
0
SEQEND
8
1
0
POLYLINE
8
1
66
1
40
0.016000
41
0.016000
0
VERTEX
8
1
10
3.700000
20
-2.100000
0
VERTEX
8
1
10
3.700000
20
-1.900000
0
SEQEND
8
1
0
POLYLINE
8
1
66
1
40
0.016000
41
0.016000
0
VERTEX
8
1
10
2.050000
20
-1.700000
0
VERTEX
8
1
10
2.100000
20
-1.600000
0
VERTEX
8
1
10
2.150000
20
-1.700000
0
VERTEX
8
1
10
2.050000
20
-1.700000
0
SEQEND
8
1
0
POLYLINE
8
1
66
1
40
0.016000
41
0.016000
0
VERTEX
8
1
10
2.100000
20
-1.800000
0
VERTEX
8
1
10
2.100000
20
-1.600000
0
SEQEND
8
1
0
POLYLINE
8
2
66
1
40
0.016000
41
0.016000
0
VERTEX
8
2
10
2.800000
20
0.100000
0
VERTEX
8
2
10
3.600000
20
0.100000
0
VERTEX
8
2
10
3.600000
20
1.000000
0
VERTEX
8
2
10
2.800000
20
1.000000
0
VERTEX
8
2
10
2.800000
20
0.100000
0
SEQEND
8
2
0
POLYLINE
8
2
66
1
40
0.016000
41
0.016000
0
VERTEX
8
2
10
2.600000
20
0.900000
0
VERTEX
8
2
10
2.800000
20
0.900000
0
SEQEND
8
2
0
TEXT
8
0
10
2.850000
20
0.860000
40
0.080000
41
1.000000
1
A
0
TEXT
8
0
10
2.620000
20
0.910000
40
0.080000
41
1.000000
1
7
0
POLYLINE
8
2
66
1
40
0.016000
41
0.016000
0
VERTEX
8
2
10
2.600000
20
0.800000
0
VERTEX
8
2
10
2.800000
20
0.800000
0
SEQEND
8
2
0
TEXT
8
0
10
2.850000
20
0.760000
40
0.080000
41
1.000000
1
B
0
TEXT
8
0
10
2.620000
20
0.810000
40
0.080000
41
1.000000
1
1
0
POLYLINE
8
2
66
1
40
0.016000
41
0.016000
0
VERTEX
8
2
10
2.600000
20
0.700000
0
VERTEX
8
2
10
2.800000
20
0.700000
0
SEQEND
8
2
0
TEXT
8
0
10
2.850000
20
0.660000
40
0.080000
41
1.000000
1
C
0
TEXT
8
0
10
2.620000
20
0.710000
40
0.080000
41
1.000000
1
2
0
POLYLINE
8
2
66
1
40
0.016000
41
0.016000
0
VERTEX
8
2
10
2.600000
20
0.600000
0
VERTEX
8
2
10
2.800000
20
0.600000
0
SEQEND
8
2
0
TEXT
8
0
10
2.850000
20
0.560000
40
0.080000
41
1.000000
1
D
0
TEXT
8
0
10
2.620000
20
0.610000
40
0.080000
41
1.000000
1
6
0
CIRCLE
8
2
10
2.770000
20
0.400000
40
0.030000
0
POLYLINE
8
2
66
1
40
0.016000
41
0.016000
0
VERTEX
8
2
10
2.600000
20
0.400000
0
VERTEX
8
2
10
2.740000
20
0.400000
0
SEQEND
8
2
0
TEXT
8
0
10
2.850000
20
0.360000
40
0.080000
41
1.000000
1
LT
0
TEXT
8
0
10
2.620000
20
0.410000
40
0.080000
41
1.000000
1
3
0
CIRCLE
8
2
10
2.770000
20
0.300000
40
0.030000
0
POLYLINE
8
2
66
1
40
0.016000
41
0.016000
0
VERTEX
8
2
10
2.600000
20
0.300000
0
VERTEX
8
2
10
2.740000
20
0.300000
0
SEQEND
8
2
0
TEXT
8
0
10
2.850000
20
0.260000
40
0.080000
41
1.000000
1
BI
0
TEXT
8
0
10
2.620000
20
0.310000
40
0.080000
41
1.000000
1
4
0
POLYLINE
8
2
66
1
40
0.016000
41
0.016000
0
VERTEX
8
2
10
2.600000
20
0.200000
0
VERTEX
8
2
10
2.800000
20
0.200000
0
SEQEND
8
2
0
TEXT
8
0
10
2.850000
20
0.160000
40
0.080000
41
1.000000
1
LE/STB
0
TEXT
8
0
10
2.620000
20
0.210000
40
0.080000
41
1.000000
1
5
0
POLYLINE
8
2
66
1
40
0.016000
41
0.016000
0
VERTEX
8
2
10
3.800000
20
0.900000
0
VERTEX
8
2
10
3.600000
20
0.900000
0
SEQEND
8
2
0
TEXT
8
0
10
3.390000
20
0.860000
40
0.080000
41
1.000000
1
QA
0
TEXT
8
0
10
3.700000
20
0.910000
40
0.080000
41
1.000000
1
13
0
POLYLINE
8
2
66
1
40
0.016000
41
0.016000
0
VERTEX
8
2
10
3.800000
20
0.800000
0
VERTEX
8
2
10
3.600000
20
0.800000
0
SEQEND
8
2
0
TEXT
8
0
10
3.390000
20
0.760000
40
0.080000
41
1.000000
1
QB
0
TEXT
8
0
10
3.700000
20
0.810000
40
0.080000
41
1.000000
1
12
0
POLYLINE
8
2
66
1
40
0.016000
41
0.016000
0
VERTEX
8
2
10
3.800000
20
0.700000
0
VERTEX
8
2
10
3.600000
20
0.700000
0
SEQEND
8
2
0
TEXT
8
0
10
3.390000
20
0.660000
40
0.080000
41
1.000000
1
QC
0
TEXT
8
0
10
3.700000
20
0.710000
40
0.080000
41
1.000000
1
11
0
POLYLINE
8
2
66
1
40
0.016000
41
0.016000
0
VERTEX
8
2
10
3.800000
20
0.600000
0
VERTEX
8
2
10
3.600000
20
0.600000
0
SEQEND
8
2
0
TEXT
8
0
10
3.390000
20
0.560000
40
0.080000
41
1.000000
1
QD
0
TEXT
8
0
10
3.700000
20
0.610000
40
0.080000
41
1.000000
1
10
0
POLYLINE
8
2
66
1
40
0.016000
41
0.016000
0
VERTEX
8
2
10
3.800000
20
0.500000
0
VERTEX
8
2
10
3.600000
20
0.500000
0
SEQEND
8
2
0
TEXT
8
0
10
3.390000
20
0.460000
40
0.080000
41
1.000000
1
QE
0
TEXT
8
0
10
3.700000
20
0.510000
40
0.080000
41
1.000000
1
9
0
POLYLINE
8
2
66
1
40
0.016000
41
0.016000
0
VERTEX
8
2
10
3.800000
20
0.400000
0
VERTEX
8
2
10
3.600000
20
0.400000
0
SEQEND
8
2
0
TEXT
8
0
10
3.390000
20
0.360000
40
0.080000
41
1.000000
1
QF
0
TEXT
8
0
10
3.700000
20
0.410000
40
0.080000
41
1.000000
1
15
0
POLYLINE
8
2
66
1
40
0.016000
41
0.016000
0
VERTEX
8
2
10
3.800000
20
0.300000
0
VERTEX
8
2
10
3.600000
20
0.300000
0
SEQEND
8
2
0
TEXT
8
0
10
3.390000
20
0.260000
40
0.080000
41
1.000000
1
QG
0
TEXT
8
0
10
3.700000
20
0.310000
40
0.080000
41
1.000000
1
14
0
TEXT
8
0
10
2.792000
20
1.023000
40
0.120000
41
0.666667
1
U10
0
TEXT
8
0
10
2.792000
20
0.002000
40
0.080000
41
1.000000
1
74HC4511
0
CIRCLE
8
1
10
2.400000
20
0.900000
40
0.020000
0
CIRCLE
8
1
10
2.400000
20
0.800000
40
0.020000
0
CIRCLE
8
1
10
2.400000
20
0.700000
40
0.020000
0
CIRCLE
8
1
10
2.400000
20
0.600000
40
0.020000
0
CIRCLE
8
1
10
2.400000
20
0.300000
40
0.020000
0
POLYLINE
8
2
66
1
40
0.016000
41
0.016000
0
VERTEX
8
2
10
2.800000
20
-2.400000
0
VERTEX
8
2
10
3.400000
20
-2.400000
0
VERTEX
8
2
10
3.400000
20
-1.300000
0
VERTEX
8
2
10
2.800000
20
-1.300000
0
VERTEX
8
2
10
2.800000
20
-2.400000
0
SEQEND
8
2
0
POLYLINE
8
2
66
1
40
0.016000
41
0.016000
0
VERTEX
8
2
10
2.600000
20
-1.400000
0
VERTEX
8
2
10
2.800000
20
-1.400000
0
SEQEND
8
2
0
TEXT
8
0
10
2.850000
20
-1.440000
40
0.080000
41
1.000000
1
D0
0
TEXT
8
0
10
2.620000
20
-1.390000
40
0.080000
41
1.000000
1
3
0
POLYLINE
8
2
66
1
40
0.016000
41
0.016000
0
VERTEX
8
2
10
3.600000
20
-1.400000
0
VERTEX
8
2
10
3.400000
20
-1.400000
0
SEQEND
8
2
0
TEXT
8
0
10
3.190000
20
-1.440000
40
0.080000
41
1.000000
1
Q0
0
TEXT
8
0
10
3.500000
20
-1.390000
40
0.080000
41
1.000000
1
14
0
POLYLINE
8
2
66
1
40
0.016000
41
0.016000
0
VERTEX
8
2
10
2.600000
20
-1.500000
0
VERTEX
8
2
10
2.800000
20
-1.500000
0
SEQEND
8
2
0
TEXT
8
0
10
2.850000
20
-1.540000
40
0.080000
41
1.000000
1
D1
0
TEXT
8
0
10
2.620000
20
-1.490000
40
0.080000
41
1.000000
1
4
0
POLYLINE
8
2
66
1
40
0.016000
41
0.016000
0
VERTEX
8
2
10
3.600000
20
-1.500000
0
VERTEX
8
2
10
3.400000
20
-1.500000
0
SEQEND
8
2
0
TEXT
8
0
10
3.190000
20
-1.540000
40
0.080000
41
1.000000
1
Q1
0
TEXT
8
0
10
3.500000
20
-1.490000
40
0.080000
41
1.000000
1
13
0
POLYLINE
8
2
66
1
40
0.016000
41
0.016000
0
VERTEX
8
2
10
2.600000
20
-1.600000
0
VERTEX
8
2
10
2.800000
20
-1.600000
0
SEQEND
8
2
0
TEXT
8
0
10
2.850000
20
-1.640000
40
0.080000
41
1.000000
1
D2
0
TEXT
8
0
10
2.620000
20
-1.590000
40
0.080000
41
1.000000
1
5
0
POLYLINE
8
2
66
1
40
0.016000
41
0.016000
0
VERTEX
8
2
10
3.600000
20
-1.600000
0
VERTEX
8
2
10
3.400000
20
-1.600000
0
SEQEND
8
2
0
TEXT
8
0
10
3.190000
20
-1.640000
40
0.080000
41
1.000000
1
Q2
0
TEXT
8
0
10
3.500000
20
-1.590000
40
0.080000
41
1.000000
1
12
0
POLYLINE
8
2
66
1
40
0.016000
41
0.016000
0
VERTEX
8
2
10
2.600000
20
-1.700000
0
VERTEX
8
2
10
2.800000
20
-1.700000
0
SEQEND
8
2
0
TEXT
8
0
10
2.850000
20
-1.740000
40
0.080000
41
1.000000
1
D3
0
TEXT
8
0
10
2.620000
20
-1.690000
40
0.080000
41
1.000000
1
6
0
POLYLINE
8
2
66
1
40
0.016000
41
0.016000
0
VERTEX
8
2
10
3.600000
20
-1.700000
0
VERTEX
8
2
10
3.400000
20
-1.700000
0
SEQEND
8
2
0
TEXT
8
0
10
3.190000
20
-1.740000
40
0.080000
41
1.000000
1
Q3
0
TEXT
8
0
10
3.500000
20
-1.690000
40
0.080000
41
1.000000
1
11
0
POLYLINE
8
2
66
1
40
0.016000
41
0.016000
0
VERTEX
8
2
10
3.600000
20
-1.800000
0
VERTEX
8
2
10
3.400000
20
-1.800000
0
SEQEND
8
2
0
TEXT
8
0
10
3.110000
20
-1.840000
40
0.080000
41
1.000000
1
RCO
0
TEXT
8
0
10
3.500000
20
-1.790000
40
0.080000
41
1.000000
1
15
0
POLYLINE
8
2
66
1
40
0.016000
41
0.016000
0
VERTEX
8
2
10
2.600000
20
-1.900000
0
VERTEX
8
2
10
2.800000
20
-1.900000
0
SEQEND
8
2
0
TEXT
8
0
10
2.850000
20
-1.940000
40
0.080000
41
1.000000
1
ENP
0
TEXT
8
0
10
2.620000
20
-1.890000
40
0.080000
41
1.000000
1
7
0
POLYLINE
8
2
66
1
40
0.016000
41
0.016000
0
VERTEX
8
2
10
2.600000
20
-2.000000
0
VERTEX
8
2
10
2.800000
20
-2.000000
0
SEQEND
8
2
0
TEXT
8
0
10
2.850000
20
-2.040000
40
0.080000
41
1.000000
1
ENT
0
TEXT
8
0
10
2.540000
20
-1.990000
40
0.080000
41
1.000000
1
10
0
POLYLINE
8
2
66
1
40
0.016000
41
0.016000
0
VERTEX
8
2
10
2.800000
20
-2.070000
0
VERTEX
8
2
10
2.830000
20
-2.100000
0
VERTEX
8
2
10
2.800000
20
-2.130000
0
VERTEX
8
2
10
2.800000
20
-2.070000
0
SEQEND
8
2
0
POLYLINE
8
2
66
1
40
0.016000
41
0.016000
0
VERTEX
8
2
10
2.600000
20
-2.100000
0
VERTEX
8
2
10
2.800000
20
-2.100000
0
SEQEND
8
2
0
TEXT
8
0
10
2.850000
20
-2.140000
40
0.080000
41
1.000000
1
CLK
0
TEXT
8
0
10
2.620000
20
-2.090000
40
0.080000
41
1.000000
1
2
0
CIRCLE
8
2
10
2.770000
20
-2.200000
40
0.030000
0
POLYLINE
8
2
66
1
40
0.016000
41
0.016000
0
VERTEX
8
2
10
2.600000
20
-2.200000
0
VERTEX
8
2
10
2.740000
20
-2.200000
0
SEQEND
8
2
0
TEXT
8
0
10
2.850000
20
-2.240000
40
0.080000
41
1.000000
1
LOAD
0
TEXT
8
0
10
2.620000
20
-2.190000
40
0.080000
41
1.000000
1
9
0
CIRCLE
8
2
10
2.770000
20
-2.300000
40
0.030000
0
POLYLINE
8
2
66
1
40
0.016000
41
0.016000
0
VERTEX
8
2
10
2.600000
20
-2.300000
0
VERTEX
8
2
10
2.740000
20
-2.300000
0
SEQEND
8
2
0
TEXT
8
0
10
2.850000
20
-2.340000
40
0.080000
41
1.000000
1
MR
0
TEXT
8
0
10
2.620000
20
-2.290000
40
0.080000
41
1.000000
1
1
0
TEXT
8
0
10
2.792000
20
-1.277000
40
0.120000
41
0.666667
1
U11
0
TEXT
8
0
10
2.792000
20
-2.498000
40
0.080000
41
1.000000
1
74LS161
0
POLYLINE
8
2
66
1
40
0.016000
41
0.016000
0
VERTEX
8
2
10
3.000000
20
-0.700000
0
VERTEX
8
2
10
3.001037
20
-0.679626
0
VERTEX
8
2
10
3.004082
20
-0.659824
0
VERTEX
8
2
10
3.009031
20
-0.640696
0
VERTEX
8
2
10
3.015781
20
-0.622344
0
VERTEX
8
2
10
3.024231
20
-0.604870
0
VERTEX
8
2
10
3.034277
20
-0.588379
0
VERTEX
8
2
10
3.045818
20
-0.572971
0
VERTEX
8
2
10
3.058750
20
-0.558750
0
VERTEX
8
2
10
3.072971
20
-0.545818
0
VERTEX
8
2
10
3.088379
20
-0.534277
0
VERTEX
8
2
10
3.104871
20
-0.524231
0
VERTEX
8
2
10
3.122344
20
-0.515781
0
VERTEX
8
2
10
3.140696
20
-0.509031
0
VERTEX
8
2
10
3.159824
20
-0.504082
0
VERTEX
8
2
10
3.179626
20
-0.501037
0
VERTEX
8
2
10
3.200000
20
-0.500000
0
VERTEX
8
2
10
3.600000
20
-0.500000
0
VERTEX
8
2
10
3.600000
20
-0.900000
0
VERTEX
8
2
10
3.200000
20
-0.900000
0
VERTEX
8
2
10
3.179626
20
-0.898963
0
VERTEX
8
2
10
3.159824
20
-0.895918
0
VERTEX
8
2
10
3.140696
20
-0.890969
0
VERTEX
8
2
10
3.122344
20
-0.884219
0
VERTEX
8
2
10
3.104871
20
-0.875769
0
VERTEX
8
2
10
3.088379
20
-0.865723
0
VERTEX
8
2
10
3.072971
20
-0.854182
0
VERTEX
8
2
10
3.058750
20
-0.841250
0
VERTEX
8
2
10
3.045818
20
-0.827029
0
VERTEX
8
2
10
3.034277
20
-0.811621
0
VERTEX
8
2
10
3.024231
20
-0.795130
0
VERTEX
8
2
10
3.015781
20
-0.777656
0
VERTEX
8
2
10
3.009031
20
-0.759304
0
VERTEX
8
2
10
3.004082
20
-0.740176
0
VERTEX
8
2
10
3.001037
20
-0.720374
0
VERTEX
8
2
10
3.000000
20
-0.700000
0
SEQEND
8
2
0
POLYLINE
8
2
66
1
40
0.016000
41
0.016000
0
VERTEX
8
2
10
3.800000
20
-0.600000
0
VERTEX
8
2
10
3.600000
20
-0.600000
0
SEQEND
8
2
0
TEXT
8
0
10
3.700000
20
-0.590000
40
0.080000
41
1.000000
1
1
0
POLYLINE
8
2
66
1
40
0.016000
41
0.016000
0
VERTEX
8
2
10
3.800000
20
-0.800000
0
VERTEX
8
2
10
3.600000
20
-0.800000
0
SEQEND
8
2
0
TEXT
8
0
10
3.700000
20
-0.790000
40
0.080000
41
1.000000
1
2
0
CIRCLE
8
2
10
2.970000
20
-0.700000
40
0.030000
0
POLYLINE
8
2
66
1
40
0.016000
41
0.016000
0
VERTEX
8
2
10
2.800000
20
-0.700000
0
VERTEX
8
2
10
2.940000
20
-0.700000
0
SEQEND
8
2
0
TEXT
8
0
10
2.820000
20
-0.690000
40
0.080000
41
1.000000
1
3
0
TEXT
8
0
10
2.992000
20
-0.477000
40
0.120000
41
0.666667
1
U12:A
0
TEXT
8
0
10
2.992000
20
-0.998000
40
0.080000
41
1.000000
1
74HC00
0
POLYLINE
8
2
66
1
40
0.016000
41
0.016000
0
VERTEX
8
2
10
4.300000
20
-2.200000
0
VERTEX
8
2
10
4.900000
20
-2.200000
0
VERTEX
8
2
10
4.900000
20
-1.300000
0
VERTEX
8
2
10
4.300000
20
-1.300000
0
VERTEX
8
2
10
4.300000
20
-2.200000
0
SEQEND
8
2
0
POLYLINE
8
2
66
1
40
0.016000
41
0.016000
0
VERTEX
8
2
10
4.100000
20
-1.400000
0
VERTEX
8
2
10
4.300000
20
-1.400000
0
SEQEND
8
2
0
TEXT
8
0
10
4.350000
20
-1.440000
40
0.080000
41
1.000000
1
A
0
TEXT
8
0
10
4.120000
20
-1.390000
40
0.080000
41
1.000000
1
1
0
POLYLINE
8
2
66
1
40
0.016000
41
0.016000
0
VERTEX
8
2
10
4.100000
20
-1.500000
0
VERTEX
8
2
10
4.300000
20
-1.500000
0
SEQEND
8
2
0
TEXT
8
0
10
4.350000
20
-1.540000
40
0.080000
41
1.000000
1
B
0
TEXT
8
0
10
4.120000
20
-1.490000
40
0.080000
41
1.000000
1
2
0
POLYLINE
8
2
66
1
40
0.016000
41
0.016000
0
VERTEX
8
2
10
4.100000
20
-1.600000
0
VERTEX
8
2
10
4.300000
20
-1.600000
0
SEQEND
8
2
0
TEXT
8
0
10
4.350000
20
-1.640000
40
0.080000
41
1.000000
1
C
0
TEXT
8
0
10
4.120000
20
-1.590000
40
0.080000
41
1.000000
1
3
0
POLYLINE
8
2
66
1
40
0.016000
41
0.016000
0
VERTEX
8
2
10
4.100000
20
-1.900000
0
VERTEX
8
2
10
4.300000
20
-1.900000
0
SEQEND
8
2
0
TEXT
8
0
10
4.350000
20
-1.940000
40
0.080000
41
1.000000
1
E1
0
TEXT
8
0
10
4.120000
20
-1.890000
40
0.080000
41
1.000000
1
6
0
CIRCLE
8
2
10
4.270000
20
-2.000000
40
0.030000
0
POLYLINE
8
2
66
1
40
0.016000
41
0.016000
0
VERTEX
8
2
10
4.100000
20
-2.000000
0
VERTEX
8
2
10
4.240000
20
-2.000000
0
SEQEND
8
2
0
TEXT
8
0
10
4.350000
20
-2.040000
40
0.080000
41
1.000000
1
E2
0
TEXT
8
0
10
4.120000
20
-1.990000
40
0.080000
41
1.000000
1
4
0
CIRCLE
8
2
10
4.270000
20
-2.100000
40
0.030000
0
POLYLINE
8
2
66
1
40
0.016000
41
0.016000
0
VERTEX
8
2
10
4.100000
20
-2.100000
0
VERTEX
8
2
10
4.240000
20
-2.100000
0
SEQEND
8
2
0
TEXT
8
0
10
4.350000
20
-2.140000
40
0.080000
41
1.000000
1
E3
0
TEXT
8
0
10
4.120000
20
-2.090000
40
0.080000
41
1.000000
1
5
0
CIRCLE
8
2
10
4.930000
20
-1.400000
40
0.030000
0
POLYLINE
8
2
66
1
40
0.016000
41
0.016000
0
VERTEX
8
2
10
5.100000
20
-1.400000
0
VERTEX
8
2
10
4.960000
20
-1.400000
0
SEQEND
8
2
0
TEXT
8
0
10
4.690000
20
-1.440000
40
0.080000
41
1.000000
1
Y0
0
TEXT
8
0
10
5.000000
20
-1.390000
40
0.080000
41
1.000000
1
15
0
CIRCLE
8
2
10
4.930000
20
-1.500000
40
0.030000
0
POLYLINE
8
2
66
1
40
0.016000
41
0.016000
0
VERTEX
8
2
10
5.100000
20
-1.500000
0
VERTEX
8
2
10
4.960000
20
-1.500000
0
SEQEND
8
2
0
TEXT
8
0
10
4.690000
20
-1.540000
40
0.080000
41
1.000000
1
Y1
0
TEXT
8
0
10
5.000000
20
-1.490000
40
0.080000
41
1.000000
1
14
0
CIRCLE
8
2
10
4.930000
20
-1.600000
40
0.030000
0
POLYLINE
8
2
66
1
40
0.016000
41
0.016000
0
VERTEX
8
2
10
5.100000
20
-1.600000
0
VERTEX
8
2
10
4.960000
20
-1.600000
0
SEQEND
8
2
0
TEXT
8
0
10
4.690000
20
-1.640000
40
0.080000
41
1.000000
1
Y2
0
TEXT
8
0
10
5.000000
20
-1.590000
40
0.080000
41
1.000000
1
13
0
CIRCLE
8
2
10
4.930000
20
-1.700000
40
0.030000
0
POLYLINE
8
2
66
1
40
0.016000
41
0.016000
0
VERTEX
8
2
10
5.100000
20
-1.700000
0
VERTEX
8
2
10
4.960000
20
-1.700000
0
SEQEND
8
2
0
TEXT
8
0
10
4.690000
20
-1.740000
40
0.080000
41
1.000000
1
Y3
0
TEXT
8
0
10
5.000000
20
-1.690000
40
0.080000
41
1.000000
1
12
0
CIRCLE
8
2
10
4.930000
20
-1.800000
40
0.030000
0
POLYLINE
8
2
66
1
40
0.016000
41
0.016000
0
VERTEX
8
2
10
5.100000
20
-1.800000
0
VERTEX
8
2
10
4.960000
20
-1.800000
0
SEQEND
8
2
0
TEXT
8
0
10
4.690000
20
-1.840000
40
0.080000
41
1.000000
1
Y4
0
TEXT
8
0
10
5.000000
20
-1.790000
40
0.080000
41
1.000000
1
11
0
CIRCLE
8
2
10
4.930000
20
-1.900000
40
0.030000
0
POLYLINE
8
2
66
1
40
0.016000
41
0.016000
0
VERTEX
8
2
10
5.100000
20
-1.900000
0
VERTEX
8
2
10
4.960000
20
-1.900000
0
SEQEND
8
2
0
TEXT
8
0
10
4.690000
20
-1.940000
40
0.080000
41
1.000000
1
Y5
0
TEXT
8
0
10
5.000000
20
-1.890000
40
0.080000
41
1.000000
1
10
0
CIRCLE
8
2
10
4.930000
20
-2.000000
40
0.030000
0
POLYLINE
8
2
66
1
40
0.016000
41
0.016000
0
VERTEX
8
2
10
5.100000
20
-2.000000
0
VERTEX
8
2
10
4.960000
20
-2.000000
0
SEQEND
8
2
0
TEXT
8
0
10
4.690000
20
-2.040000
40
0.080000
41
1.000000
1
Y6
0
TEXT
8
0
10
5.000000
20
-1.990000
40
0.080000
41
1.000000
1
9
0
CIRCLE
8
2
10
4.930000
20
-2.100000
40
0.030000
0
POLYLINE
8
2
66
1
40
0.016000
41
0.016000
0
VERTEX
8
2
10
5.100000
20
-2.100000
0
VERTEX
8
2
10
4.960000
20
-2.100000
0
SEQEND
8
2
0
TEXT
8
0
10
4.690000
20
-2.140000
40
0.080000
41
1.000000
1
Y7
0
TEXT
8
0
10
5.000000
20
-2.090000
40
0.080000
41
1.000000
1
7
0
TEXT
8
0
10
4.292000
20
-1.277000
40
0.120000
41
0.666667
1
U13
0
TEXT
8
0
10
4.292000
20
-2.298000
40
0.080000
41
1.000000
1
74HC138
0
CIRCLE
8
1
10
2.400000
20
-1.500000
40
0.020000
0
CIRCLE
8
1
10
2.400000
20
-1.600000
40
0.020000
0
CIRCLE
8
1
10
2.400000
20
-1.700000
40
0.020000
0
CIRCLE
8
1
10
4.000000
20
-2.100000
40
0.020000
0
CIRCLE
8
1
10
2.100000
20
-1.900000
40
0.020000
0
CIRCLE
8
1
10
2.100000
20
-2.000000
40
0.020000
0
POLYLINE
8
3
66
1
40
0.008000
41
0.008000
0
VERTEX
8
3
10
2.050000
20
-2.950000
0
VERTEX
8
3
10
1.950000
20
-2.900000
0
VERTEX
8
3
10
2.000000
20
-2.850000
0
VERTEX
8
3
10
2.050000
20
-2.950000
0
SEQEND
8
3
0
POLYLINE
8
3
66
1
40
0.008000
41
0.008000
0
VERTEX
8
3
10
2.100000
20
-3.000000
0
VERTEX
8
3
10
2.050000
20
-2.950000
0
SEQEND
8
3
0
POLYLINE
8
3
66
1
40
0.008000
41
0.008000
0
VERTEX
8
3
10
2.100000
20
-2.970000
0
VERTEX
8
3
10
2.140000
20
-2.970000
0
VERTEX
8
3
10
2.140000
20
-2.860000
0
VERTEX
8
3
10
2.180000
20
-2.860000
0
VERTEX
8
3
10
2.180000
20
-2.970000
0
VERTEX
8
3
10
2.220000
20
-2.970000
0
VERTEX
8
3
10
2.220000
20
-2.860000
0
VERTEX
8
3
10
2.260000
20
-2.860000
0
VERTEX
8
3
10
2.260000
20
-2.970000
0
VERTEX
8
3
10
2.290000
20
-2.970000
0
SEQEND
8
3
0
TEXT
8
3
10
1.270000
20
-2.890000
40
0.080000
41
1.000000
1
U11(CLK)
0
CIRCLE
8
1
10
4.000000
20
-1.600000
40
0.020000
0
CIRCLE
8
1
10
4.000000
20
-0.800000
40
0.020000
0
ENDSEC
0
EOF

